<?xml version="1.0" standalone="no"?><!DOCTYPE svg PUBLIC "-//W3C//DTD SVG 1.1//EN" "http://www.w3.org/Graphics/SVG/1.1/DTD/svg11.dtd"><svg t="1619230896561" class="icon" viewBox="0 0 1024 1024" version="1.1" xmlns="http://www.w3.org/2000/svg" p-id="11339" xmlns:xlink="http://www.w3.org/1999/xlink" width="200" height="200"><defs><style type="text/css"></style></defs><path d="M213.9 15.2H810c132.5 0 198.7 66.2 198.7 198.7V810c0 132.5-66.2 198.7-198.7 198.7H213.9c-132.5 0-198.7-66.2-198.7-198.7V213.9c0-132.5 66.3-198.7 198.7-198.7z" fill="#FFE43C" p-id="11340"></path><path d="M810 15.2H533.6C292.6 74 97.6 250.5 15.2 484.4V810c0 109.7 89 198.7 198.7 198.7H810c109.7 0 198.7-89 198.7-198.7V213.9c0-109.8-88.9-198.7-198.7-198.7z" fill="#00F5D4" p-id="11341"></path><path d="M810 15.2h-3.7c-395.5 85.5-646.8 475.5-561.3 871 9.1 41.9 21.8 82.8 38 122.5h527c109.7 0 198.7-89 198.7-198.7V213.9c0-109.8-88.9-198.7-198.7-198.7z" fill="#01BEFF" p-id="11342"></path><path d="M977.8 107.3c-14.2-22.4-32.9-42-55.4-57.4-259 120-424.8 379.5-424.7 664.9-0.1 101.1 20.8 201.2 61.4 293.8H810c18.7 0 36.8-2.6 53.9-7.4-65.2-99-105.6-236.7-105.6-388.9 0-227.8 90.7-423.1 219.5-505z" fill="#9A5CE5" p-id="11343"></path><path d="M1008.7 810V213.9c0-38.3-11-75.1-31-106.5-128.8 81.9-219.4 277.2-219.4 505 0 152.2 40.4 289.8 105.6 388.9 83.6-23.5 144.8-100.3 144.8-191.3z" fill="#F15BB5" p-id="11344"></path><path d="M852.6 711.1c-89.7 25.3-133.4 68.6-195 98.8 48.2 10.8 96.4 14.3 152.2 14.3 82.1 0 166.5-45 198.9-78.2v-33.7c-49.6-12.4-82.7-21.9-156.1-1.2zM163.4 686.2c-0.1 0-0.2-0.1-0.2-0.1-53.6-26.8-105-37.4-148-40.4v77.2c24.2-10.6 74.4-28.6 148.2-36.7zM547.9 841c45.7-4.9 79.8-16.5 109.7-31.1-33-7.4-66-18.1-101.5-33.5-85.9-37.4-174.8-96-325.7-94.2-24.2 0.3-46.4 1.8-67 4.1C303.2 756.1 408.1 855.9 547.9 841z" fill="#FFFFFF" opacity=".2" p-id="11345"></path><path d="M657.6 809.8c-29.9 14.6-64 26.2-109.7 31.1-139.8 15-244.7-84.8-384.4-154.7-73.9 8.1-124 26.1-148.2 36.6V810c0 132.5 66.2 198.7 198.7 198.7h596c132.5 0 198.7-66.2 198.7-198.7v-64.1c-32.4 33.2-116.8 78.2-198.9 78.2-55.8 0-104-3.5-152.2-14.3z" fill="#FFFFFF" opacity=".2" p-id="11346"></path><path d="M657.6 809.8c-29.9 14.6-64 26.2-109.7 31.1-139.8 15-244.7-84.8-384.4-154.7-73.9 8.1-124 26.1-148.2 36.6V810c0 132.5 66.2 198.7 198.7 198.7h596c132.5 0 198.7-66.2 198.7-198.7v-64.1c-32.4 33.2-116.8 78.2-198.9 78.2-55.8 0-104-3.5-152.2-14.3z" fill="#FFFFFF" opacity=".2" p-id="11347"></path><path d="M142 608.9m-18.8 0a18.8 18.8 0 1 0 37.6 0 18.8 18.8 0 1 0-37.6 0Z" fill="#FFFFFF" opacity=".5" p-id="11348"></path><path d="M935.2 458.1m-18.8 0a18.8 18.8 0 1 0 37.6 0 18.8 18.8 0 1 0-37.6 0Z" fill="#FFFFFF" opacity=".5" p-id="11349"></path><path d="MNaN NaNaNaN NaN NaN 1 0 NaN NaN NaN NaN NaN 1 0 NaN NaNZ" fill="#FFFFFF" p-id="11350"></path><path d="M332.1 67.6m-9.4 0a9.4 9.4 0 1 0 18.8 0 9.4 9.4 0 1 0-18.8 0Z" fill="#FFFFFF" p-id="11351"></path><path d="M107.6 340.2m-9.4 0a9.4 9.4 0 1 0 18.8 0 9.4 9.4 0 1 0-18.8 0Z" fill="#FFFFFF" p-id="11352"></path><path d="M977.8 306.3m-9.4 0a9.4 9.4 0 1 0 18.8 0 9.4 9.4 0 1 0-18.8 0Z" fill="#FFFFFF" opacity=".6" p-id="11353"></path><path d="M938.4 663.5m-15.5 0a15.5 15.5 0 1 0 31 0 15.5 15.5 0 1 0-31 0Z" fill="#FFFFFF" opacity=".8" p-id="11354"></path><path d="M495.126344 65.195045a15.5 15.5 0 1 0 4.966464-30.599579 15.5 15.5 0 1 0-4.966464 30.599579Z" fill="#FFFFFF" opacity=".8" p-id="11355"></path><path d="M508.5 856.8c-18.8 0-34.1-15.3-34.1-34.1v-73.5c0-18.8 15.3-34.1 34.1-34.1s34.1 15.3 34.1 34.1v73.5c0 18.9-15.2 34.1-34.1 34.1z" fill="#FFB6E5" p-id="11356"></path><path d="M514.1 169C425.6 169 354 240.7 354 329.1v165c0 88.4 71.7 160.1 160.1 160.1 88.4 0 160.1-71.7 160.1-160.1v-165c0-88.4-71.7-160.1-160.1-160.1z m57.8 350.2H453.1c-18.8 0-34.1-15.3-34.1-34.1s15.3-34.1 34.1-34.1h118.8c18.8 0 34.1 15.3 34.1 34.1s-15.3 34.1-34.1 34.1z m0-140H453.1c-18.8 0-34.1-15.3-34.1-34.1s15.3-34.1 34.1-34.1h118.8c18.8 0 34.1 15.3 34.1 34.1s-15.3 34.1-34.1 34.1z" fill="#FFFFFF" p-id="11357"></path><path d="M511.6 771c-150.4 0-272.7-122.3-272.7-272.7 0-18.8 15.3-34.1 34.1-34.1s34.1 15.3 34.1 34.1c0 112.8 91.8 204.6 204.6 204.6s204.6-91.8 204.6-204.6c0-18.8 15.3-34.1 34.1-34.1s34.1 15.3 34.1 34.1C784.3 648.7 661.9 771 511.6 771z" fill="#FFDEEB" p-id="11358"></path></svg>