<?xml version="1.0" standalone="no"?><!DOCTYPE svg PUBLIC "-//W3C//DTD SVG 1.1//EN" "http://www.w3.org/Graphics/SVG/1.1/DTD/svg11.dtd"><svg t="1618819551159" class="icon" viewBox="0 0 1024 1024" version="1.1" xmlns="http://www.w3.org/2000/svg" p-id="2920" xmlns:xlink="http://www.w3.org/1999/xlink" width="200" height="200"><defs><style type="text/css"></style></defs><path d="M897.714 174.5l0 562.5q0 25.111-17.077 44.698t-43.192 30.384-51.982 16.072-48.466 5.273-48.466-5.273-51.982-16.072-43.192-30.384-17.077-44.698 17.077-44.698 43.192-30.384 51.982-16.072 48.466-5.273q52.734 0 96.428 19.587l0-269.698-385.714 119.03 0 356.083q0 25.111-17.077 44.698t-43.193 30.384-51.982 16.072-48.466 5.273-48.466-5.273-51.982-16.072-43.193-30.384-17.077-44.698 17.077-44.698 43.193-30.384 51.982-16.072 48.466-5.273q52.734 0 96.428 19.587l0-485.658q0-15.569 9.542-28.376t24.609-17.829l417.858-128.572q6.026-2.009 14.063-2.009 20.089 0 34.151 14.063t14.063 34.151z" p-id="2921" fill="#ffffff"></path></svg>