<svg id="图层_1" data-name="图层 1" xmlns="http://www.w3.org/2000/svg" xmlns:xlink="http://www.w3.org/1999/xlink" viewBox="0 0 751.16 1334"><defs><style>.cls-1,.cls-15,.cls-18{fill:none;}.cls-2{clip-path:url(#clip-path);}.cls-3{fill:#00d2b7;}.cls-20,.cls-4{fill:#18a08a;}.cls-4{opacity:0.46;}.cls-5,.cls-8{fill:#f5ba3f;}.cls-15,.cls-16,.cls-18,.cls-26,.cls-31,.cls-36,.cls-37,.cls-38,.cls-39,.cls-40,.cls-5,.cls-8{stroke:#55130f;}.cls-15,.cls-16,.cls-18,.cls-26,.cls-31,.cls-36,.cls-37,.cls-40,.cls-5{stroke-miterlimit:10;}.cls-37,.cls-39,.cls-5{stroke-width:4px;}.cls-6{fill:#55130f;}.cls-7{fill:#ba1e25;}.cls-38,.cls-39,.cls-8{stroke-linecap:round;stroke-linejoin:round;}.cls-8{stroke-width:2px;}.cls-9{fill:#e2b56c;}.cls-10{fill:#d05341;}.cls-11{fill:#53120f;}.cls-12{fill:#c61f17;}.cls-13{fill:#333232;}.cls-14{fill:#1b1b1b;}.cls-15{stroke-width:6px;}.cls-16,.cls-24,.cls-36{fill:#f5a439;}.cls-16,.cls-18,.cls-26,.cls-38,.cls-40{stroke-width:5px;}.cls-17,.cls-40{fill:#e24340;}.cls-19,.cls-38,.cls-39{fill:#fff;}.cls-20{opacity:0.41;}.cls-21{fill:#040000;opacity:0.2;}.cls-22{fill:#c85b5b;}.cls-23{fill:#9a3636;opacity:0.4;}.cls-25{clip-path:url(#clip-path-2);}.cls-26,.cls-30,.cls-31{fill:#fdeced;}.cls-27{fill:#f1968a;}.cls-28{fill:#ffcadd;}.cls-29{fill:#623520;}.cls-31,.cls-36{stroke-width:3px;}.cls-32{fill:#945b48;}.cls-33{fill:#e97261;}.cls-34{fill:#ec6959;}.cls-35{fill:#578eaf;}.cls-37{fill:#f7f9f9;}</style><clipPath id="clip-path"><rect class="cls-1" width="750" height="1334"/></clipPath><clipPath id="clip-path-2"><rect class="cls-1" x="1.16" width="750" height="1334"/></clipPath></defs><title>一饭风顺</title><rect class="cls-3" width="750" height="1334"/><path class="cls-4" d="M256.07,705.48a3.82,3.82,0,0,0,3.82,3.83H492.17a3.83,3.83,0,0,0,3.83-3.83V668.6a2.92,2.92,0,0,1,2.91-2.93h61a3.82,3.82,0,0,0,3.83-3.66c.2-4.89.2-10.25,0-15.12a3.83,3.83,0,0,0-3.83-3.67h-61A2.91,2.91,0,0,1,496,640.3V603.42a3.82,3.82,0,0,0-3.83-3.83H259.89a3.82,3.82,0,0,0-3.82,3.83V640.3a2.91,2.91,0,0,1-2.92,2.92h-61a3.83,3.83,0,0,0-3.83,3.67c-.2,4.87-.2,10.25,0,15.12a3.82,3.82,0,0,0,3.83,3.66h61a2.92,2.92,0,0,1,2.92,2.93v36.88ZM376,862.51c-2.63,0-5.25,0-7.89-.15a2.92,2.92,0,0,1-2.81-2.92V734.68a3.79,3.79,0,0,0-3.83-3.81h-151a3.81,3.81,0,0,0-3.45,5.48,188.26,188.26,0,0,0,110.17,96.51,4.09,4.09,0,0,0,1.19.18,3.82,3.82,0,0,0,3.83-3.83V777a3.84,3.84,0,0,0-3.83-3.83H301a3.84,3.84,0,0,0-3.83,3.83v20.24a2.91,2.91,0,0,1-1.45,2.53,3,3,0,0,1-2.91,0,171.93,171.93,0,0,1-49.66-43.46,3,3,0,0,1-.28-3.07,2.91,2.91,0,0,1,2.61-1.62h95.33a2.9,2.9,0,0,1,2.9,2.93v102a3,3,0,0,1-1,2.25,3,3,0,0,1-2.39.63A208.35,208.35,0,0,1,176.33,713a2.92,2.92,0,0,1,2.79-3.73h51.56a3.83,3.83,0,0,0,3.83-3.83V691.06a3.83,3.83,0,0,0-3.83-3.83H173.13a2.92,2.92,0,0,1-2.89-2.52c-3.09-22.65-3.09-37.84,0-60.52a2.92,2.92,0,0,1,2.89-2.53h57.55a3.83,3.83,0,0,0,3.83-3.83V603.42a3.82,3.82,0,0,0-3.83-3.83H179.12a2.94,2.94,0,0,1-2.79-3.74,208.39,208.39,0,0,1,163.91-146.4,3,3,0,0,1,2.38.64,3,3,0,0,1,1.05,2.23V554.37a2.9,2.9,0,0,1-2.9,2.92H245.44a2.93,2.93,0,0,1-2.33-4.69,171.75,171.75,0,0,1,49.66-43.45,3,3,0,0,1,2.91,0,2.9,2.9,0,0,1,1.45,2.52v20.24a3.83,3.83,0,0,0,3.83,3.83H318.3a3.83,3.83,0,0,0,3.83-3.83V479.68a3.84,3.84,0,0,0-3.83-3.83,3.54,3.54,0,0,0-1.19.2,188.93,188.93,0,0,0-110.17,96.49,3.84,3.84,0,0,0,3.45,5.5h151a3.82,3.82,0,0,0,3.83-3.83V449.45a2.92,2.92,0,0,1,2.81-2.92q4-.15,7.87-.15t8.14.16a2.89,2.89,0,0,1,2.79,2.91l-.05,124.76a3.82,3.82,0,0,0,3.83,3.83h151a3.83,3.83,0,0,0,3.44-5.5A188.9,188.9,0,0,0,435,476.05a3.46,3.46,0,0,0-1.19-.2,3.84,3.84,0,0,0-3.83,3.83v52.23a3.83,3.83,0,0,0,3.83,3.83H451.1a3.83,3.83,0,0,0,3.83-3.83V511.67a2.94,2.94,0,0,1,1.45-2.52,3,3,0,0,1,2.92,0A171.84,171.84,0,0,1,509,552.6a2.92,2.92,0,0,1-2.33,4.69H411.31a2.94,2.94,0,0,1-2.92-2.92l.06-102.05a2.91,2.91,0,0,1,1.05-2.23,2.86,2.86,0,0,1,2.37-.64A208.45,208.45,0,0,1,575.58,595.33a3.32,3.32,0,0,1-3.19,4.26h-51a3.83,3.83,0,0,0-3.83,3.83v14.41a3.84,3.84,0,0,0,3.83,3.83H579a2.91,2.91,0,0,1,2.89,2.49,211.35,211.35,0,0,1,0,60.59,2.9,2.9,0,0,1-2.89,2.49H521.38a3.84,3.84,0,0,0-3.83,3.83v14.42a3.84,3.84,0,0,0,3.83,3.83h51.56a2.92,2.92,0,0,1,2.79,3.73,208.39,208.39,0,0,1-163.86,146.4,2.93,2.93,0,0,1-3.42-2.87l-.06-102a2.94,2.94,0,0,1,2.92-2.93h95.31a2.93,2.93,0,0,1,2.62,1.62,3,3,0,0,1-.29,3.07,172,172,0,0,1-49.65,43.46,3,3,0,0,1-2.92,0,2.91,2.91,0,0,1-1.45-2.53V777a3.84,3.84,0,0,0-3.83-3.83H433.76a3.84,3.84,0,0,0-3.83,3.83v52.23a3.87,3.87,0,0,0,1.59,3.11,3.81,3.81,0,0,0,2.24.72,3.71,3.71,0,0,0,1.19-.19,188.89,188.89,0,0,0,110.17-96.5,3.81,3.81,0,0,0-3.44-5.48h-151a3.79,3.79,0,0,0-3.83,3.81l.05,124.76a2.9,2.9,0,0,1-2.79,2.91q-4.11.17-8.12.16ZM302.71,643.22a3.84,3.84,0,0,0-3.83,3.83v14.81a3.82,3.82,0,0,0,3.83,3.81H449.35a3.82,3.82,0,0,0,3.83-3.81V647.05a3.84,3.84,0,0,0-3.83-3.83Zm-22.47,44a2.91,2.91,0,0,1-2.9-2.92V624.58a2.91,2.91,0,0,1,2.9-2.92H471.82a2.91,2.91,0,0,1,2.9,2.92v59.73a2.91,2.91,0,0,1-2.9,2.92Z"/><path class="cls-5" d="M534.31,354.72a1.19,1.19,0,0,1,0-1.67L651.15,237.57a1.2,1.2,0,0,1,1.69,0l4.84,5a1.18,1.18,0,0,1,.33.85,1.21,1.21,0,0,1-.37.84l-119,113.19a1.19,1.19,0,0,1-1.68,0Z"/><path class="cls-6" d="M656.82,243.46l-28.89,27.48-90.12,85.71-2.64-2.75,88.46-87.45,28.35-28,4.84,5m1.72-1.65-4.84-5A2.34,2.34,0,0,0,652,236a2.4,2.4,0,0,0-1.71.68l-28.36,28L533.5,352.2a2.39,2.39,0,0,0,0,3.35l2.64,2.75a2.38,2.38,0,0,0,3.36.08l90.13-85.72,28.88-27.48a2.33,2.33,0,0,0,.74-1.67,2.38,2.38,0,0,0-.66-1.7Zm-3.44,3.3Z"/><polygon class="cls-7" points="656.82 243.46 627.93 270.94 623.63 266.45 651.98 238.42 656.82 243.46"/><line class="cls-8" x1="623.63" y1="266.45" x2="627.93" y2="270.94"/><path class="cls-9" d="M385.31,382a9.32,9.32,0,1,1-9.31-8.85A9.09,9.09,0,0,1,385.31,382Z"/><rect class="cls-10" x="82.14" y="485.62" width="587.73" height="29.83"/><path class="cls-11" d="M667.37,488.12V513H84.64V488.12H667.37m5-5H79.64V518H672.37V483.12Z"/><rect class="cls-12" x="84.64" y="507.79" width="582.73" height="4.46"/><rect class="cls-10" x="156" y="435.98" width="30.09" height="382"/><path class="cls-6" d="M183.59,438.48v377H158.5v-377h25.09m5-5H153.5v387h35.09v-387Z"/><rect class="cls-12" x="178.73" y="438.48" width="4.94" height="371.18"/><rect class="cls-13" x="151.36" y="761.55" width="40.25" height="73.91"/><path class="cls-11" d="M189.11,764.05V833H153.86V764.05h35.25m5-5H148.86V838h45.25V759.05Z"/><rect class="cls-10" x="564.92" y="435.98" width="30.09" height="382"/><path class="cls-6" d="M592.51,438.48v377H567.42v-377h25.09m5-5H562.42v387h35.09v-387Z"/><rect class="cls-12" x="567.34" y="438.48" width="4.94" height="371.18"/><rect class="cls-13" x="559.4" y="761.55" width="40.25" height="73.91"/><path class="cls-11" d="M597.14,764.05V833H561.9V764.05h35.24m5-5H556.9V838h45.24V759.05Z"/><rect class="cls-10" x="100.71" y="432.36" width="550.47" height="28.04"/><path class="cls-11" d="M648.68,434.86v23H103.21v-23H648.68m5-5H98.21v33H653.68v-33Z"/><rect class="cls-12" x="103.21" y="453.11" width="545.47" height="4.14"/><polygon class="cls-13" points="649.61 408.09 639.67 398.46 637.52 393.43 622.64 358.56 613.35 358.56 601.26 358.56 577.09 358.56 565.01 358.56 540.84 358.56 528.75 358.56 504.58 358.56 492.49 358.56 468.32 358.56 456.23 358.56 432.06 358.56 419.98 358.56 395.8 358.56 383.72 358.56 359.55 358.56 347.46 358.56 323.29 358.56 311.2 358.56 287.03 358.56 274.94 358.56 250.77 358.56 238.69 358.56 218.79 358.56 214.51 358.56 208.57 358.56 202.43 358.56 178.25 358.56 166.17 358.56 142 358.56 129.91 358.56 129.37 358.56 112.34 398.46 105.74 404.85 93.65 416.56 73.16 436.41 93.65 436.41 105.74 436.41 129.91 436.41 142 436.41 166.17 436.41 178.25 436.41 198.35 436.41 202.43 436.41 214.51 436.41 229.01 436.41 238.69 436.41 250.77 436.41 274.94 436.41 287.03 436.41 311.2 436.41 323.29 436.41 347.46 436.41 359.55 436.41 383.72 436.41 395.8 436.41 419.98 436.41 432.06 436.41 456.23 436.41 468.32 436.41 492.49 436.41 504.58 436.41 528.75 436.41 540.84 436.41 565.01 436.41 577.09 436.41 601.26 436.41 613.35 436.41 637.52 436.41 649.61 436.41 678.85 436.41 649.61 408.09"/><polygon class="cls-14" points="178.25 358.56 178.25 436.41 198.35 436.41 202.43 436.41 202.43 358.56 178.25 358.56"/><polygon class="cls-14" points="218.79 358.56 214.51 358.56 214.51 436.41 229.01 436.41 238.69 436.41 238.69 358.56 218.79 358.56"/><rect class="cls-14" x="468.32" y="358.55" width="24.17" height="77.86"/><rect class="cls-14" x="504.58" y="358.55" width="24.17" height="77.86"/><rect class="cls-14" x="323.29" y="358.55" width="24.17" height="77.86"/><rect class="cls-14" x="250.77" y="358.55" width="24.17" height="77.86"/><rect class="cls-14" x="142" y="358.55" width="24.17" height="77.86"/><rect class="cls-14" x="395.8" y="358.55" width="24.17" height="77.86"/><rect class="cls-14" x="287.03" y="358.55" width="24.17" height="77.86"/><rect class="cls-14" x="432.06" y="358.55" width="24.17" height="77.86"/><rect class="cls-14" x="540.83" y="358.55" width="24.17" height="77.86"/><polygon class="cls-14" points="622.64 358.56 613.35 358.56 613.35 436.41 637.52 436.41 637.52 393.43 622.64 358.56"/><polygon class="cls-14" points="129.37 358.56 112.34 398.46 105.74 404.85 105.74 436.41 129.91 436.41 129.91 358.56 129.37 358.56"/><rect class="cls-14" x="577.09" y="358.55" width="24.17" height="77.86"/><polygon class="cls-14" points="73.16 436.41 93.65 436.41 93.65 416.56 73.16 436.41"/><polygon class="cls-14" points="649.61 408.09 649.61 436.41 678.85 436.41 649.61 408.09"/><rect class="cls-14" x="359.54" y="358.55" width="24.17" height="77.86"/><polygon class="cls-13" points="93.65 416.56 93.65 436.41 105.74 436.41 105.74 404.85 93.65 416.56"/><rect class="cls-13" x="129.91" y="358.55" width="12.09" height="77.86"/><rect class="cls-13" x="166.17" y="358.55" width="12.09" height="77.86"/><polygon class="cls-13" points="208.57 358.56 202.43 358.56 202.43 436.41 214.51 436.41 214.51 358.56 208.57 358.56"/><rect class="cls-13" x="238.69" y="358.55" width="12.09" height="77.86"/><rect class="cls-13" x="274.94" y="358.55" width="12.09" height="77.86"/><rect class="cls-13" x="311.2" y="358.55" width="12.09" height="77.86"/><rect class="cls-13" x="347.46" y="358.55" width="12.09" height="77.86"/><rect class="cls-13" x="383.72" y="358.55" width="12.09" height="77.86"/><rect class="cls-13" x="419.97" y="358.55" width="12.09" height="77.86"/><rect class="cls-13" x="456.23" y="358.55" width="12.09" height="77.86"/><rect class="cls-13" x="492.49" y="358.55" width="12.09" height="77.86"/><rect class="cls-13" x="528.75" y="358.55" width="12.09" height="77.86"/><rect class="cls-13" x="565.01" y="358.55" width="12.09" height="77.86"/><rect class="cls-13" x="601.26" y="358.55" width="12.09" height="77.86"/><polygon class="cls-13" points="639.67 398.46 637.52 393.43 637.52 436.41 649.61 436.41 649.61 408.09 639.67 398.46"/><path class="cls-13" d="M634.88,356.18a3,3,0,0,1-3.11,2.88H120.24a3,3,0,0,1-3.11-2.88h0a3,3,0,0,1,3.11-2.88H631.77a3,3,0,0,1,3.11,2.88Z"/><line class="cls-15" x1="1" y1="834.96" x2="751" y2="834.96"/><rect class="cls-16" x="77.73" y="553.32" width="43.28" height="10.64"/><rect class="cls-12" x="48.02" y="563.51" width="102.18" height="156.76" rx="25.41"/><path class="cls-6" d="M124.79,566a22.91,22.91,0,0,1,22.91,22.91V694.86a22.91,22.91,0,0,1-22.91,22.91H73.43a22.91,22.91,0,0,1-22.91-22.91V588.92A22.91,22.91,0,0,1,73.43,566h51.36m0-5H73.43a27.94,27.94,0,0,0-27.91,27.91V694.86a27.94,27.94,0,0,0,27.91,27.91h51.36a27.94,27.94,0,0,0,27.91-27.91V588.92A27.94,27.94,0,0,0,124.79,561Z"/><rect class="cls-17" x="70.82" y="563.51" width="56.58" height="156.76" rx="25.41"/><path class="cls-6" d="M102,566a22.91,22.91,0,0,1,22.91,22.91V694.86A22.91,22.91,0,0,1,102,717.77H96.23a22.91,22.91,0,0,1-22.91-22.91V588.92A22.91,22.91,0,0,1,96.23,566H102m0-5H96.23a27.94,27.94,0,0,0-27.91,27.91V694.86a27.94,27.94,0,0,0,27.91,27.91H102a27.94,27.94,0,0,0,27.91-27.91V588.92A27.94,27.94,0,0,0,102,561Z"/><line class="cls-18" x1="78.61" y1="722.13" x2="78.61" y2="753.02"/><line class="cls-18" x1="86.81" y1="722.13" x2="86.81" y2="753.02"/><line class="cls-18" x1="95.01" y1="722.13" x2="95.01" y2="753.02"/><line class="cls-18" x1="103.21" y1="722.13" x2="103.21" y2="753.02"/><line class="cls-18" x1="111.41" y1="722.13" x2="111.41" y2="753.02"/><line class="cls-18" x1="119.61" y1="722.13" x2="119.61" y2="753.02"/><line class="cls-18" x1="97.99" y1="553.08" x2="97.99" y2="512.95"/><rect class="cls-16" x="631" y="553.32" width="43.28" height="10.64" transform="translate(1305.28 1117.29) rotate(-180)"/><rect class="cls-12" x="601.8" y="563.51" width="102.18" height="156.76" rx="25.41"/><path class="cls-6" d="M678.57,566a22.91,22.91,0,0,1,22.91,22.91V694.86a22.91,22.91,0,0,1-22.91,22.91H627.22a22.92,22.92,0,0,1-22.92-22.91V588.92A22.92,22.92,0,0,1,627.22,566h51.35m0-5H627.22a28,28,0,0,0-27.92,27.91V694.86a28,28,0,0,0,27.92,27.91h51.35a27.94,27.94,0,0,0,27.91-27.91V588.92A27.94,27.94,0,0,0,678.57,561Z"/><rect class="cls-17" x="624.6" y="563.51" width="56.58" height="156.76" rx="25.41"/><path class="cls-6" d="M655.77,566a22.91,22.91,0,0,1,22.91,22.91V694.86a22.91,22.91,0,0,1-22.91,22.91H650a22.91,22.91,0,0,1-22.91-22.91V588.92A22.91,22.91,0,0,1,650,566h5.76m0-5H650a27.94,27.94,0,0,0-27.91,27.91V694.86A27.94,27.94,0,0,0,650,722.77h5.76a27.94,27.94,0,0,0,27.91-27.91V588.92A27.94,27.94,0,0,0,655.77,561Z"/><line class="cls-18" x1="673.39" y1="722.13" x2="673.39" y2="753.02"/><line class="cls-18" x1="665.19" y1="722.13" x2="665.19" y2="753.02"/><line class="cls-18" x1="656.99" y1="722.13" x2="656.99" y2="753.02"/><line class="cls-18" x1="648.79" y1="722.13" x2="648.79" y2="753.02"/><line class="cls-18" x1="640.59" y1="722.13" x2="640.59" y2="753.02"/><line class="cls-18" x1="632.39" y1="722.13" x2="632.39" y2="753.02"/><line class="cls-18" x1="654.02" y1="553.08" x2="654.02" y2="512.95"/><path class="cls-19" d="M87.62,618.36l1.83,2.06a1.75,1.75,0,0,0,2.47,0,1.78,1.78,0,0,0,0-2.47l-1.82-2.07a1.78,1.78,0,0,0-2.48,0,1.81,1.81,0,0,0,0,2.48Z"/><path class="cls-19" d="M82.39,625.14c2.15.41,4.14-.12,6.26.1,5.34.54,4.35,6.23,3.41,9.56a11.8,11.8,0,0,1-4.83,7,8.4,8.4,0,0,1-4.67,1.33l-1.81-.33q-4.23-1.35-.67-4.23c2.17.58,3.1-2.79.93-3.37-4.67-1.25-8,3.57-5.55,7.71,2.73,4.67,9.46,4.39,13.53,1.91,5.13-3.11,7.35-9.55,7.3-15.31,0-2.37-.53-4.86-2.5-6.39-3.07-2.41-7-.67-10.47-1.34-2.2-.42-3.14,3-.93,3.38Z"/><path class="cls-19" d="M87.79,643.76l-.13,17c0,2.25,3.48,2.25,3.5,0l.13-17c0-2.25-3.48-2.25-3.5,0Z"/><path class="cls-19" d="M90.64,641a9.38,9.38,0,0,0,4.68,2.89c2.18.56,3.11-2.81.93-3.37a6.18,6.18,0,0,1-3.13-2A1.75,1.75,0,1,0,90.64,641Z"/><path class="cls-19" d="M99.6,641c-3.37,4.56-3.61,13.74,1.43,17.26,4.61,3.21,14.21,3,17.8-1.72,3.21-4.2,4.36-13.62-.94-16.62-4.8-2.71-13.77-3.16-18,.72-1.67,1.53.81,4,2.47,2.48,2.72-2.49,7.85-1.71,11.12-1,2.58.59,4.57,2.52,4.39,5.33-.12,2-.38,4.66-1.42,6.37-2.16,3.54-8.85,3.54-12.28,2.09-4.64-2-4.1-9.71-1.54-13.17C104,641,100.93,639.22,99.6,641Z"/><path class="cls-19" d="M101.32,628.59a30.27,30.27,0,0,0,.45,6.51c.36,2.22,3.73,1.28,3.37-.93a26.74,26.74,0,0,1-.32-5.58c.12-2.26-3.38-2.25-3.5,0Z"/><path class="cls-19" d="M105.14,650l8.18.1c2.26,0,2.26-3.47,0-3.5l-8.18-.1c-2.25,0-2.25,3.47,0,3.5Z"/><path class="cls-19" d="M107.6,645.2l.05,7.79a1.75,1.75,0,0,0,3.5,0l-.05-7.79a1.75,1.75,0,0,0-3.5,0Z"/><path class="cls-19" d="M100.69,626a67.83,67.83,0,0,1,16.42-.19c2.23.25,2.22-3.26,0-3.5a67.83,67.83,0,0,0-16.42.19c-2.2.29-2.23,3.79,0,3.5Z"/><path class="cls-19" d="M106.05,630.33c1.72-.33,7.29-1.45,8,1,.83,2.73-9.06,1.82-10.39,1.56-2.21-.43-3.15,3-.94,3.37,3.72.72,15.7,1.84,15-4.69-.62-6-8.47-5.47-12.67-4.65-2.21.42-1.27,3.8.93,3.37Z"/><path class="cls-19" d="M642.25,618.36l1.82,2.06a1.76,1.76,0,0,0,2.48,0,1.79,1.79,0,0,0,0-2.47l-1.83-2.07a1.77,1.77,0,0,0-2.47,0,1.79,1.79,0,0,0,0,2.48Z"/><path class="cls-19" d="M637,625.14c2.15.41,4.14-.12,6.26.1,5.34.54,4.36,6.23,3.41,9.56a11.76,11.76,0,0,1-4.83,7,8.39,8.39,0,0,1-4.66,1.33l-1.82-.33q-4.23-1.35-.67-4.23c2.18.58,3.11-2.79.93-3.37-4.67-1.25-8,3.57-5.55,7.71,2.74,4.67,9.46,4.39,13.54,1.91,5.12-3.11,7.34-9.55,7.29-15.31,0-2.37-.53-4.86-2.5-6.39-3.07-2.41-7-.67-10.47-1.34-2.2-.42-3.14,3-.93,3.38Z"/><path class="cls-19" d="M642.42,643.76l-.14,17a1.75,1.75,0,0,0,3.5,0l.14-17a1.75,1.75,0,0,0-3.5,0Z"/><path class="cls-19" d="M645.27,641a9.35,9.35,0,0,0,4.67,2.89c2.19.56,3.12-2.81.93-3.37a6.22,6.22,0,0,1-3.13-2,1.75,1.75,0,0,0-2.47,2.47Z"/><path class="cls-19" d="M654.23,641c-3.38,4.56-3.62,13.74,1.42,17.26,4.61,3.21,14.21,3,17.8-1.72,3.21-4.2,4.36-13.62-.94-16.62-4.8-2.71-13.77-3.16-18,.72-1.67,1.53.81,4,2.47,2.48,2.72-2.49,7.86-1.71,11.12-1,2.58.59,4.57,2.52,4.4,5.33-.13,2-.39,4.66-1.43,6.37-2.15,3.54-8.84,3.54-12.28,2.09-4.63-2-4.09-9.71-1.53-13.17C658.59,641,655.55,639.22,654.23,641Z"/><path class="cls-19" d="M656,628.59a30.92,30.92,0,0,0,.44,6.51c.36,2.22,3.73,1.28,3.38-.93a25.45,25.45,0,0,1-.32-5.58c.11-2.26-3.39-2.25-3.5,0Z"/><path class="cls-19" d="M659.76,650l8.19.1c2.25,0,2.25-3.47,0-3.5l-8.19-.1c-2.25,0-2.25,3.47,0,3.5Z"/><path class="cls-19" d="M662.22,645.2l0,7.79a1.75,1.75,0,0,0,3.5,0l0-7.79a1.75,1.75,0,0,0-3.5,0Z"/><path class="cls-19" d="M655.32,626a67.74,67.74,0,0,1,16.41-.19c2.24.25,2.22-3.26,0-3.5a67.74,67.74,0,0,0-16.41.19c-2.2.29-2.23,3.79,0,3.5Z"/><path class="cls-19" d="M660.68,630.33c1.71-.33,7.28-1.45,8,1,.83,2.73-9.05,1.82-10.39,1.56-2.2-.43-3.15,3-.93,3.37,3.71.72,15.69,1.84,15-4.69-.62-6-8.47-5.47-12.66-4.65-2.21.42-1.28,3.8.93,3.37Z"/><path class="cls-5" d="M542,363.45a1.19,1.19,0,0,1,.09-1.67L663.52,251.16a1.17,1.17,0,0,1,.87-.31,1.2,1.2,0,0,1,.83.4l4.62,5.23a1.19,1.19,0,0,1-.11,1.69L546.21,366.42a1.19,1.19,0,0,1-1.67-.11Z"/><path class="cls-6" d="M669,257.27l-30,26.28-93.54,82-2.53-2.85,92-83.78L664.32,252l4.63,5.23m1.78-1.58-4.62-5.23a2.38,2.38,0,0,0-3.39-.18l-29.47,26.85-92,83.77a2.39,2.39,0,0,0-.18,3.34l2.52,2.86a2.39,2.39,0,0,0,3.36.21l93.54-82,30-26.28a2.34,2.34,0,0,0,.81-1.64,2.4,2.4,0,0,0-.6-1.73Zm-3.57,3.16h0Z"/><polygon class="cls-7" points="668.95 257.27 638.97 283.55 634.85 278.89 664.32 252.04 668.95 257.27"/><line class="cls-8" x1="634.85" y1="278.89" x2="638.97" y2="283.55"/><path class="cls-20" d="M751,1069.73V1334H1v-86c102.65-2.29,229.77-15.28,316.24-59.29C460.48,1115.86,647.75,1069.78,751,1069.73Z"/><polygon class="cls-21" points="659.43 1123.65 659.47 1123.06 651.73 1116.31 656.36 1070.96 648.34 1070.96 641.71 1070.96 641.71 1070.96 611.93 1070.96 610.64 1070.96 610.46 1070.96 609.94 1070.96 609.16 1070.96 581.09 1070.96 574.46 1070.96 566.45 1070.96 571.07 1116.56 533.74 1150.96 538.36 1223.45 570.67 1223.45 571.07 1223.45 579.09 1223.45 585.71 1223.45 603.82 1223.45 609.94 1223.45 618.98 1223.45 619.69 1223.45 637.09 1223.45 637.09 1223.45 643.72 1223.45 651.73 1223.45 652.84 1223.45 684.45 1223.45 689.07 1150.96 659.43 1123.65"/><polygon class="cls-22" points="575.41 1111.69 532.79 1150.96 537.41 1223.45 618.03 1223.45 618.03 1122.77 575.41 1111.69"/><polygon class="cls-17" points="600.38 1225.95 600.38 1120.83 646.19 1108.93 690.69 1149.93 685.84 1225.95 600.38 1225.95"/><path class="cls-6" d="M645.5,1111.69,688.12,1151l-4.62,72.49H602.88V1122.77l42.62-11.08m1.38-5.52-2.64.68-42.62,11.08-3.74,1v109.55h90.31l.3-4.68,4.62-72.49.15-2.38-1.75-1.62L648.89,1108l-2-1.84Z"/><polygon class="cls-17" points="535.07 1225.95 530.22 1149.93 574.72 1108.93 620.53 1120.83 620.53 1225.95 535.07 1225.95"/><path class="cls-6" d="M575.41,1111.69,618,1122.77v100.68H537.41L532.79,1151l42.62-39.27m-1.38-5.52-2,1.84-42.62,39.27-1.75,1.62.15,2.38,4.62,72.49.3,4.68H623V1118.9l-3.74-1-42.62-11.08-2.64-.68Z"/><polygon class="cls-23" points="645.5 1111.69 667.43 1132.46 651.89 1223.45 602.88 1223.45 602.88 1122.77 645.5 1111.69"/><polygon class="cls-23" points="576.12 1111.69 554.61 1130.92 569.73 1223.45 618.74 1223.45 618.74 1122.77 576.12 1111.69"/><polygon class="cls-17" points="567.7 1225.95 564.3 1113.66 564.15 1109.05 562.92 1068.46 657.98 1068.46 656.75 1109.04 653.21 1225.95 567.7 1225.95"/><path class="cls-6" d="M655.41,1071l-1.15,38-.15,4.62-.11,3.85,0,.77-.11,3.85-3.08,101.39H570.12l-3.07-101.39-.11-3.85,0-.77-.11-3.85-.15-4.62-1.15-38h89.91m5.15-5H560.35l.15,5.15,1.15,38,.15,4.63.11,3.84,0,.78.11,3.84,3.08,101.4.14,4.84h90.36l.15-4.84,3.07-101.4.12-3.85,0-.77.12-3.85.14-4.61,1.15-38,.16-5.15Z"/><polygon class="cls-9" points="654 1117.44 653.97 1118.21 653.86 1122.06 567.05 1122.06 566.93 1118.21 566.91 1117.44 654 1117.44"/><polygon class="cls-9" points="564.62 1124.56 564.3 1113.66 564.07 1106.47 656.84 1106.47 656.28 1124.56 564.62 1124.56"/><path class="cls-6" d="M654.26,1109l-.15,4.62-.11,3.85,0,.77-.11,3.85H567.05l-.11-3.85,0-.77-.11-3.85-.15-4.62h87.61m5.16-5H561.49l.16,5.16.15,4.62.11,3.84,0,.78.11,3.84.15,4.85h96.51l.14-4.85.12-3.85,0-.77.12-3.85.14-4.61.17-5.16Z"/><polygon class="cls-19" points="654.11 1113.59 654 1117.44 653.97 1118.21 566.93 1118.21 566.91 1117.44 566.8 1113.59 654.11 1113.59"/><circle class="cls-24" cx="610.93" cy="1115.51" r="14.1"/><path class="cls-6" d="M610.93,1130.84a15.33,15.33,0,1,1,15.32-15.33A15.35,15.35,0,0,1,610.93,1130.84Zm0-28.2a12.88,12.88,0,1,0,12.87,12.87A12.89,12.89,0,0,0,610.93,1102.64Z"/><path class="cls-6" d="M604.4,1115.51a12.34,12.34,0,0,1,6.53,6.53,12.31,12.31,0,0,1,6.53-6.53,12.29,12.29,0,0,1-6.53-6.52A12.32,12.32,0,0,1,604.4,1115.51Z"/><path class="cls-19" d="M603.15,1164.85l1.8,2a1.12,1.12,0,0,0,1.59,0,1.11,1.11,0,0,0,.33-.79,1.22,1.22,0,0,0-.33-.8l-1.8-2a1.11,1.11,0,0,0-.79-.33,1.14,1.14,0,0,0-.8.33,1.16,1.16,0,0,0-.33.79,1.3,1.3,0,0,0,.33.8Z"/><path class="cls-19" d="M597.73,1171.37a13.23,13.23,0,0,0,4.82.15c1.4-.13,3.06-.29,4.31.51,2.33,1.48,1.63,5.65,1.21,7.89a13.9,13.9,0,0,1-4,7.84,8.8,8.8,0,0,1-7.57,2.34,4.61,4.61,0,0,1-3.65-2.87c-.37-1.33.6-3.53,2.31-2.76,1.31.58,2.45-1.36,1.13-2a4.06,4.06,0,0,0-4.73,1,4.85,4.85,0,0,0-.48,5.37c1.79,3.47,6.44,4.24,9.87,3.2a13,13,0,0,0,8.1-7.67,20.74,20.74,0,0,0,1.45-5.85,12.5,12.5,0,0,0-.34-5.64,5.49,5.49,0,0,0-4.54-3.61c-2.44-.35-4.92.58-7.32-.08a1.13,1.13,0,0,0-.6,2.17Z"/><path class="cls-19" d="M603.49,1190.29l-.13,16.75a1.13,1.13,0,0,0,2.25,0l.13-16.75a1.13,1.13,0,0,0-2.25,0Z"/><path class="cls-19" d="M606.13,1187.15a8.5,8.5,0,0,0,4.34,2.69,1.13,1.13,0,0,0,.6-2.17,7.27,7.27,0,0,1-1-.33c.34.13.05,0,0,0l-.25-.12-.5-.29-.46-.31-.1-.07c-.11-.09.21.16.06,0l-.22-.18a9.17,9.17,0,0,1-.82-.83,1.12,1.12,0,0,0-1.59,0,1.14,1.14,0,0,0,0,1.59Z"/><path class="cls-19" d="M615.22,1187.65c-1.62,1.88-2,4.23-2.24,6.63a13.28,13.28,0,0,0,.83,6.89c2.14,4.57,7.87,5,12.32,4.62a9.68,9.68,0,0,0,6.25-2.54c1.75-1.79,2.31-4.3,2.66-6.7s.78-5-.43-7.27-3.54-2.85-5.73-3.33c-4.16-.92-10.38-1.74-13.66,1.7-1,1,.59,2.64,1.59,1.59,2.24-2.34,6.59-1.93,9.49-1.49a14,14,0,0,1,5.2,1.45c1.78,1.11,1.76,3.29,1.58,5.15a16.65,16.65,0,0,1-1.39,6,6,6,0,0,1-4.41,3,20.52,20.52,0,0,1-5.59.11c-1.85-.16-3.82-.59-5.08-2.07-1.42-1.68-1.61-4-1.46-6.08s.24-4.45,1.66-6.1C617.75,1188.15,616.16,1186.55,615.22,1187.65Z"/><path class="cls-19" d="M616.82,1175.34a23.72,23.72,0,0,0,0,3c.08,1.08.24,2.15.41,3.22a1.14,1.14,0,0,0,1.39.79,1.15,1.15,0,0,0,.78-1.39c0-.29-.09-.58-.13-.87,0-.1,0-.2,0-.3l0-.2c0,.13,0,.14,0,0-.06-.44-.11-.89-.14-1.34a26.39,26.39,0,0,1,0-3,1.13,1.13,0,0,0-1.13-1.12,1.14,1.14,0,0,0-1.12,1.12Z"/><path class="cls-19" d="M620,1195.81l8.06.11a1.15,1.15,0,0,0,1.12-1.13,1.12,1.12,0,0,0-1.12-1.12l-8.06-.11a1.13,1.13,0,1,0,0,2.25Z"/><path class="cls-19" d="M623,1191.7l0,7.68a1.16,1.16,0,0,0,1.13,1.13,1.13,1.13,0,0,0,1.12-1.13l0-7.68a1.13,1.13,0,0,0-2.25,0Z"/><path class="cls-19" d="M615.9,1172.16a62.37,62.37,0,0,1,15.86-.15,1.13,1.13,0,0,0,1.13-1.12,1.16,1.16,0,0,0-1.13-1.13,64.33,64.33,0,0,0-16.46.23,1.13,1.13,0,0,0-.79,1.38,1.17,1.17,0,0,0,1.39.79Z"/><path class="cls-19" d="M620.72,1176.49a20.24,20.24,0,0,1,4.65-.48c1.49.06,3.5.56,4.12,2.1.34.83,0,1.36-.81,1.64a15.82,15.82,0,0,1-3.19.71,21,21,0,0,1-7.08-.26c-1.42-.3-2,1.87-.6,2.17a23.18,23.18,0,0,0,6.85.43,23.47,23.47,0,0,0,3.44-.55,6.21,6.21,0,0,0,2.77-1.2c1.67-1.49,1-4-.43-5.42a7.72,7.72,0,0,0-5.07-1.87,23.25,23.25,0,0,0-5.25.56c-1.42.28-.82,2.45.6,2.17Z"/><path class="cls-19" d="M609.65,1137.44c-3.17.64-6.83-1.48-8,2.73-.68,2.37-.4,5.53-.55,8l-.59,9.74c-.09,1.54,2.31,1.54,2.4,0l.77-12.73c.15-2.44-.11-5,2.8-5.37,1.32-.14,2.47.26,3.85,0s.87-2.62-.64-2.32Z"/><path class="cls-19" d="M594.44,1149.17H609a1.2,1.2,0,0,0,0-2.4H594.44a1.2,1.2,0,0,0,0,2.4Z"/><path class="cls-19" d="M616,1145.33c.35,2.72-.75,5.86,1.18,8.19a3.76,3.76,0,0,0,4.38,1c4.81-1.68,8.06-6.84,8.88-11.64l-2.36-.32c-.47,4.73-.38,9.7,4,12.57,1.29.86,2.49-1.22,1.21-2.07-3.52-2.33-3.14-6.8-2.77-10.5.13-1.33-2.13-1.65-2.36-.32a13.53,13.53,0,0,1-4.2,8c-1.2,1.09-3.42,2.8-5.12,1.48-1.05-.82-.23-5-.4-6.36-.19-1.52-2.59-1.53-2.4,0Z"/><path class="cls-19" d="M623.08,1139.52l7.73-7.13c1.14-1.05-.56-2.74-1.7-1.7l-7.72,7.14c-1.14,1.05.56,2.74,1.69,1.69Z"/><g class="cls-25"><path class="cls-26" d="M261,650.71a23.38,23.38,0,0,0-11.79-.36c-13.79,3.18-22.09,18.24-18.54,33.63s17.6,25.3,31.39,22.13a23.35,23.35,0,0,0,8.38-3.81A151.13,151.13,0,0,1,261,650.71Z"/><path class="cls-27" d="M247.73,679.4c-2.28,3.59-2.52,7.59-.31,9.71,2.71,2.59,8.06,1.4,12-2.66a14.24,14.24,0,0,0,2.9-4.39c-.67-3.18-1.24-6.41-1.7-9.71a14.61,14.61,0,0,0-3.26-2.63c-4.81-2.89-10.29-2.63-12.22.59C243.55,672.87,244.74,676.54,247.73,679.4Z"/><path class="cls-28" d="M255.83,1029.54l30.3-176.6a62.94,62.94,0,0,1,62-52.59h74.62a62.94,62.94,0,0,1,62,52.59l30.31,176.6Z"/><path class="cls-6" d="M422.77,802.85a60.57,60.57,0,0,1,59.55,50.52L512.12,1027H258.79L288.6,853.37a60.56,60.56,0,0,1,59.55-50.52h74.62m0-5H348.15a65.42,65.42,0,0,0-64.48,54.67L253.86,1026.2l-1,5.84H518.05l-1-5.84-29.8-173.68a65.44,65.44,0,0,0-64.48-54.67Z"/><rect class="cls-26" x="362.81" y="769.83" width="45.3" height="46.16"/><path class="cls-29" d="M266.76,676.66a38.89,38.89,0,0,1-24.47-8.18c-19.79-15.7-19.66-48.93.28-74.08,12.58-15.86,30.38-25.33,47.61-25.33a38.83,38.83,0,0,1,24.46,8.17c19.79,15.7,19.67,48.93-.28,74.09C301.79,667.19,284,676.66,266.76,676.66Z"/><path class="cls-6" d="M290.18,571.57a36.33,36.33,0,0,1,22.91,7.63c18.74,14.86,18.43,46.46-.69,70.57-12.46,15.73-29.86,24.39-45.64,24.39a36.32,36.32,0,0,1-22.91-7.64c-18.75-14.86-18.44-46.46.68-70.57,12.47-15.72,29.86-24.38,45.65-24.38m0-5h0c-18,0-36.52,9.82-49.57,26.27-9.93,12.53-15.48,27.38-15.62,41.82-.14,14.9,5.45,27.61,15.75,35.78a41.36,41.36,0,0,0,26,8.72c18,0,36.51-9.83,49.56-26.28,9.94-12.53,15.48-27.38,15.62-41.81.15-14.91-5.44-27.62-15.74-35.79a41.38,41.38,0,0,0-26-8.71Z"/><path class="cls-29" d="M504.16,676.66c-17.24,0-35-9.47-47.61-25.33C447,639.23,441.6,624.92,441.47,611c-.14-14.12,5.12-26.12,14.8-33.8a38.87,38.87,0,0,1,24.46-8.17c17.24,0,35,9.47,47.61,25.33,9.59,12.09,14.95,26.4,15.08,40.28.14,14.12-5.12,26.12-14.8,33.8a38.84,38.84,0,0,1-24.46,8.18Z"/><path class="cls-6" d="M480.73,571.57c15.79,0,33.18,8.66,45.65,24.38,19.12,24.11,19.43,55.71.69,70.57a36.34,36.34,0,0,1-22.91,7.64c-15.79,0-33.18-8.66-45.65-24.39-19.12-24.11-19.43-55.71-.68-70.57a36.31,36.31,0,0,1,22.9-7.63m0-5a41.35,41.35,0,0,0-26,8.71c-10.3,8.17-15.9,20.88-15.75,35.79.14,14.43,5.69,29.28,15.62,41.81,13.05,16.45,31.58,26.28,49.57,26.28a41.34,41.34,0,0,0,26-8.72c10.3-8.17,15.9-20.88,15.75-35.78-.14-14.44-5.69-29.29-15.62-41.82-13-16.45-31.58-26.27-49.57-26.27Z"/><path class="cls-29" d="M382.11,561.93a70.45,70.45,0,0,1-41-12.81c-11.08-8-17.43-18.2-17.43-28,0-19.56,26.22-35.48,58.45-35.48s58.45,15.92,58.45,35.48c0,9.82-6.35,20-17.42,28A70.5,70.5,0,0,1,382.11,561.93Z"/><path class="cls-6" d="M382.11,488.12c30.9,0,55.95,14.77,55.95,33S413,559.43,382.11,559.43s-55.95-20.11-55.95-38.33,25-33,55.95-33m0-5c-15.82,0-30.78,3.68-42.1,10.35-12.15,7.17-18.85,17-18.85,27.63s6.73,21.58,18.46,30a74.61,74.61,0,0,0,85,0c11.73-8.47,18.46-19.42,18.46-30s-6.69-20.46-18.85-27.63c-11.32-6.67-26.28-10.35-42.1-10.35Z"/><path class="cls-30" d="M515,709.2A25.72,25.72,0,0,1,500,704.33l-1.55-1.12.68-1.79a140,140,0,0,0,6-20.8c.67-3.17,1.23-6.38,1.68-9.55a162.89,162.89,0,0,0,1.57-20.4l0-1.85,1.78-.52a26.5,26.5,0,0,1,7.3-1,25.78,25.78,0,0,1,5.74.65,26.65,26.65,0,0,1,17.4,13.47,32.65,32.65,0,0,1,3,23.17C540.32,698.83,528.29,709.2,515,709.2Z"/><path class="cls-6" d="M517.46,649.76a22.93,22.93,0,0,1,5.18.59c13.79,3.18,22.09,18.23,18.54,33.64C538.08,697.44,527,706.7,515,706.7a22.65,22.65,0,0,1-5.21-.6,23.16,23.16,0,0,1-8.38-3.8,140.09,140.09,0,0,0,6.15-21.17q1-4.77,1.7-9.71a163.47,163.47,0,0,0,1.6-20.72,24.09,24.09,0,0,1,6.6-.94m0-5h0a28.79,28.79,0,0,0-8,1.14l-3.56,1-.05,3.71a159.51,159.51,0,0,1-1.55,20.07c-.44,3.13-1,6.28-1.64,9.39a136.72,136.72,0,0,1-5.93,20.43l-1.36,3.58,3.11,2.24A28.08,28.08,0,0,0,515,711.7c14.44,0,27.5-11.18,31-26.59a35.13,35.13,0,0,0-3.26-24.94,29.1,29.1,0,0,0-19-14.69,27.86,27.86,0,0,0-6.3-.72Z"/><path class="cls-27" d="M524.34,678.5c2.28,3.6,2.52,7.59.32,9.71-2.71,2.6-8.07,1.41-12-2.65a14,14,0,0,1-2.89-4.39q1-4.77,1.7-9.71a14.55,14.55,0,0,1,3.25-2.63c4.82-2.89,10.3-2.63,12.22.59C528.52,672,527.34,675.65,524.34,678.5Z"/><path class="cls-30" d="M385.46,786.81c-33.81,0-64.91-13.38-87.58-37.68-23.34-25-36.19-60.37-36.19-99.55,0-73.28,55.52-132.89,123.77-132.89S509.23,576.3,509.23,649.58c0,39.18-12.86,74.53-36.19,99.55C450.37,773.43,419.26,786.81,385.46,786.81Z"/><path class="cls-6" d="M385.46,519.19c67,0,121.27,58.38,121.27,130.39,0,81.28-54.3,134.73-121.27,134.73S264.19,730.86,264.19,649.58c0-72,54.29-130.39,121.27-130.39m0-5c-33.8,0-65.55,14.13-89.41,39.78s-36.86,59.51-36.86,95.61A162.82,162.82,0,0,0,269,706.67a131.77,131.77,0,0,0,27,44.16c23.15,24.81,54.9,38.48,89.41,38.48s66.26-13.67,89.4-38.48a131.77,131.77,0,0,0,27-44.16,162.82,162.82,0,0,0,9.85-57.09c0-36.1-13.09-70.05-36.86-95.61s-55.62-39.78-89.41-39.78Z"/><path class="cls-29" d="M265.89,665.24a5.73,5.73,0,0,1-5.72-5.79c-1.57-60.26,18.06-93.9,34.8-111.5,20.93-22,50.83-33.64,88.87-34.56H384a5.81,5.81,0,0,1,5.72,5.79l1.06,39a6.19,6.19,0,0,1-1.08,3.65c-3.4,4.93-15.83,21.17-33.12,23.51a111.86,111.86,0,0,0-43.14,16.16c-21.49,13.74-35.63,33.69-42,59.29A5.65,5.65,0,0,1,265.89,665.24Z"/><path class="cls-6" d="M384,515.89a3.34,3.34,0,0,1,3.22,3.36l1.06,39a3.58,3.58,0,0,1-.64,2.17c-2.88,4.18-14.94,20.23-31.39,22.45-16.72,2.26-71.94,16.06-87.27,77.32a3.14,3.14,0,0,1-3.06,2.55,3.25,3.25,0,0,1-3.22-3.36c-1.25-47.86,10.64-140.81,121.23-143.49H384m0-5h-.19c-38.73.94-69.22,12.83-90.62,35.34-14.18,14.9-24.28,34.39-30,57.91a210.34,210.34,0,0,0-5.46,55.37,8.29,8.29,0,0,0,8.22,8.23,8.13,8.13,0,0,0,7.91-6.34c6.25-25,20-44.4,41-57.78a109.3,109.3,0,0,1,42.13-15.8c18.3-2.47,31.29-19.42,34.84-24.56a8.53,8.53,0,0,0,1.51-5.14l-1.06-39a8.28,8.28,0,0,0-8.21-8.22Z"/><path class="cls-29" d="M505,665.24a5.68,5.68,0,0,1-5.48-4.44c-6.41-25.6-20.55-45.55-42-59.29a111.86,111.86,0,0,0-43.14-16.16c-17.28-2.34-29.72-18.58-33.12-23.51a6.11,6.11,0,0,1-1.07-3.65l1.06-39a5.8,5.8,0,0,1,5.71-5.79h.13c38,.92,67.94,12.55,88.88,34.56,16.74,17.6,36.36,51.24,34.8,111.5a5.74,5.74,0,0,1-5.73,5.79Z"/><path class="cls-6" d="M386.94,515.89H387c110.6,2.68,122.48,95.63,121.24,143.49a3.26,3.26,0,0,1-3.23,3.36,3.13,3.13,0,0,1-3-2.55c-15.34-61.26-70.55-75.06-87.27-77.32-16.46-2.22-28.51-18.27-31.4-22.45a3.64,3.64,0,0,1-.63-2.17l1.06-39a3.33,3.33,0,0,1,3.21-3.36m0-5a8.28,8.28,0,0,0-8.21,8.22l-1.06,39a8.53,8.53,0,0,0,1.52,5.14c3.54,5.14,16.53,22.09,34.84,24.56a109.36,109.36,0,0,1,42.13,15.8c20.93,13.38,34.71,32.82,41,57.78a8.12,8.12,0,0,0,7.9,6.34,8.29,8.29,0,0,0,8.22-8.23,210.78,210.78,0,0,0-5.45-55.37c-5.76-23.52-15.86-43-30-57.91-21.41-22.51-51.9-34.4-90.62-35.34Z"/><ellipse class="cls-27" cx="443.36" cy="722.41" rx="11.79" ry="8.97"/><ellipse class="cls-27" cx="324.41" cy="722.41" rx="11.79" ry="8.97"/><path class="cls-31" d="M379,698.35s.5-7.44,6.45-7.94,6.44,7.94,6.44,7.94"/><path class="cls-6" d="M417,644.4a64.15,64.15,0,0,1,14-8.86,62.89,62.89,0,0,1,15.91-5.15,51.76,51.76,0,0,1,8.44-.8,41.09,41.09,0,0,1,8.49.84,20,20,0,0,1,8,3.29,39.07,39.07,0,0,1,6.17,5.63c-2.52-1.15-4.9-2.54-7.34-3.46a21.33,21.33,0,0,0-7.41-1.57,57.56,57.56,0,0,0-7.77,0c-1.29.15-2.59.18-3.88.4l-1.93.24-1.93.34a120.17,120.17,0,0,0-15.35,3.87C427.28,640.75,422.23,642.65,417,644.4Z"/><path class="cls-6" d="M353.93,644.4c-5.25-1.75-10.29-3.65-15.4-5.22a121,121,0,0,0-15.35-3.87l-1.93-.34-1.94-.24c-1.29-.22-2.58-.25-3.88-.4a57.56,57.56,0,0,0-7.77,0,21.42,21.42,0,0,0-7.41,1.57c-2.44.92-4.81,2.31-7.33,3.46a38.64,38.64,0,0,1,6.17-5.63,20,20,0,0,1,8-3.29,41,41,0,0,1,8.48-.84,51.55,51.55,0,0,1,8.44.8A63,63,0,0,1,340,635.54,64.38,64.38,0,0,1,353.93,644.4Z"/><ellipse class="cls-19" cx="450.67" cy="679.29" rx="28.56" ry="26.88"/><circle class="cls-32" cx="451.58" cy="677.67" r="20.36"/><path class="cls-6" d="M423.43,670.85s7.33-25.62,44.72-16.55c0,0,10.22,4.7,15.21-1.51,0,0-2.1,7.69-9.49,7.28,0,0,5,3.39,3.74,11.61a20.42,20.42,0,0,0-11.48-10c-7.9-2.69-20.05-10.06-43.06,10.53Z"/><circle class="cls-6" cx="451.58" cy="677.67" r="10.92"/><circle class="cls-19" cx="464.62" cy="684.8" r="2.72"/><path class="cls-6" d="M435.19,702a71.39,71.39,0,0,0,9.45,2.64,39.24,39.24,0,0,0,9.43.78,25.82,25.82,0,0,0,9.06-2.06,34.26,34.26,0,0,0,8.14-5.22,19.55,19.55,0,0,1-7.07,7.3,20.8,20.8,0,0,1-10,3A27.14,27.14,0,0,1,444,706.86,27.43,27.43,0,0,1,435.19,702Z"/><path class="cls-6" d="M456.76,705.4a13.88,13.88,0,0,1,1.94,2.09,7.7,7.7,0,0,1,1.26,2.63,9.58,9.58,0,0,1-.4,5.31,8.79,8.79,0,0,0-1-4.76,7.51,7.51,0,0,0-3.49-2.79Z"/><path class="cls-6" d="M462.55,703.43a6.86,6.86,0,0,1,2.47,1.2,10.57,10.57,0,0,1,1.81,1.65,9.06,9.06,0,0,1,1.35,2,5,5,0,0,1,.57,2.24,6,6,0,0,0-2.87-3.06,9.4,9.4,0,0,0-1.89-.8,4.13,4.13,0,0,0-1.72-.21Z"/><polygon class="cls-19" points="444.66 663.84 446.8 668.18 451.6 668.88 448.13 672.26 448.95 677.04 444.66 674.79 440.37 677.04 441.18 672.26 437.71 668.88 442.51 668.18 444.66 663.84"/><path class="cls-6" d="M335.77,702a27.48,27.48,0,0,1-8.85,4.89,27.14,27.14,0,0,1-10.19,1.52,20.8,20.8,0,0,1-10-3,19.55,19.55,0,0,1-7.07-7.3,34.31,34.31,0,0,0,8.15,5.22,25.72,25.72,0,0,0,9.05,2.06,39.2,39.2,0,0,0,9.43-.78A72,72,0,0,0,335.77,702Z"/><path class="cls-6" d="M315.88,707.88a7.51,7.51,0,0,0-3.49,2.79,8.88,8.88,0,0,0-1,4.76,9.58,9.58,0,0,1-.39-5.31,7.5,7.5,0,0,1,1.25-2.63,13.88,13.88,0,0,1,1.94-2.09Z"/><path class="cls-6" d="M308.68,706.42a4.14,4.14,0,0,0-1.72.21,9.57,9.57,0,0,0-1.88.8,6,6,0,0,0-2.88,3.06,5,5,0,0,1,.57-2.24,9.06,9.06,0,0,1,1.35-2,11.38,11.38,0,0,1,1.81-1.65,7,7,0,0,1,2.47-1.2Z"/><ellipse class="cls-19" cx="320.29" cy="679.29" rx="28.56" ry="26.88"/><circle class="cls-32" cx="319.38" cy="677.67" r="20.36"/><circle class="cls-6" cx="319.38" cy="677.67" r="10.92"/><circle class="cls-19" cx="330.52" cy="684.8" r="2.72"/><path class="cls-6" d="M347.49,670.85s-7.34-25.62-44.73-16.55c0,0-10.21,4.7-15.21-1.51,0,0,2.1,7.69,9.49,7.28,0,0-5,3.39-3.74,11.61a20.47,20.47,0,0,1,11.48-10c7.9-2.69,20.06-10.06,43.07,10.53Z"/><polygon class="cls-19" points="310.56 663.84 312.7 668.18 317.5 668.88 314.03 672.26 314.85 677.04 310.56 674.79 306.26 677.04 307.08 672.26 303.61 668.88 308.41 668.18 310.56 663.84"/><path class="cls-32" d="M385.45,761.18c-15.58,0-27.79-20.41-27.79-46.45v-1.5h55.59v1.5C413.25,740.77,401,761.18,385.45,761.18Z"/><path class="cls-6" d="M411.75,714.73c0,25.8-11.78,44.95-26.3,44.95s-26.29-19.15-26.29-44.95h52.59m3-3H356.16v3c0,12.9,2.89,24.86,8.13,33.68,5.46,9.2,13,14.27,21.16,14.27s15.71-5.07,21.18-14.27c5.23-8.82,8.12-20.78,8.12-33.68v-3Z"/><path class="cls-33" d="M385.46,728.87c-8.78,0-15.79,4.56-21.69,11.84,4.57,13.76,12,19,21.69,19s17.33-5.21,21.91-19C401.47,733.43,394.24,728.87,385.46,728.87Z"/><path class="cls-19" d="M402.47,714.73c-.27,6.93-7.78,10.71-17,10.71s-16.74-3.78-17-10.71Z"/><path class="cls-34" d="M382.82,521c-10.18,0-18.46-5.74-18.46-12.81s8.28-12.8,18.46-12.8,18.46,5.74,18.46,12.8S393,521,382.82,521Z"/><path class="cls-6" d="M382.82,496.9c9.37,0,17,5.06,17,11.3s-7.59,11.31-17,11.31-17-5.06-17-11.31,7.59-11.3,17-11.3m0-3c-11.19,0-20,6.28-20,14.3s8.77,14.31,20,14.31,20-6.28,20-14.31-8.76-14.3-20-14.3Z"/><path class="cls-34" d="M373.35,520.81c-10.18,0-18.46-5.74-18.46-12.8s8.28-12.81,18.46-12.81,18.47,5.74,18.47,12.81S383.53,520.81,373.35,520.81Z"/><path class="cls-6" d="M373.35,496.7c9.37,0,17,5.06,17,11.31s-7.6,11.3-17,11.3-17-5.06-17-11.3,7.6-11.31,17-11.31m0-3c-11.19,0-20,6.28-20,14.31s8.77,14.3,20,14.3,20-6.28,20-14.3-8.77-14.31-20-14.31Z"/><path class="cls-34" d="M378.65,521a12.81,12.81,0,1,1,13.17-12.81A13,13,0,0,1,378.65,521Z"/><path class="cls-6" d="M378.65,496.9A11.31,11.31,0,1,1,367,508.2a11.49,11.49,0,0,1,11.66-11.3m0-3a14.31,14.31,0,1,0,14.67,14.3,14.5,14.5,0,0,0-14.67-14.3Z"/><path class="cls-35" d="M361.61,528.63q-.64,0-1.29-.06c-5.58-.5-9.66-4-9.3-8,.33-3.64,4.24-6.28,9.3-6.28q.63,0,1.29.06a12.42,12.42,0,0,1,6.63,2.51,6.34,6.34,0,0,1,2.66,5.51C370.57,526,366.66,528.63,361.61,528.63Z"/><path class="cls-6" d="M360.32,515.77a11.18,11.18,0,0,1,1.15.05c4.67.42,8.22,3.29,7.94,6.4-.26,2.85-3.65,4.91-7.8,4.91a11.37,11.37,0,0,1-1.16,0c-4.66-.42-8.22-3.29-7.93-6.4.26-2.85,3.64-4.91,7.8-4.91m0-3h0c-5.85,0-10.39,3.21-10.79,7.64-.44,4.83,4.24,9.08,10.65,9.66.47,0,.95.06,1.43.06,5.85,0,10.38-3.21,10.79-7.64.44-4.83-4.24-9.08-10.66-9.66-.47,0-.95-.06-1.42-.06Z"/><path class="cls-35" d="M379.18,534.37c-5.59,0-10-3.15-10-7.16s4.39-7.15,10-7.15,10,3.14,10,7.15S384.78,534.37,379.18,534.37Z"/><path class="cls-6" d="M379.18,521.56c4.69,0,8.49,2.53,8.49,5.65s-3.8,5.66-8.49,5.66-8.48-2.53-8.48-5.66,3.8-5.65,8.48-5.65m0-3c-6.43,0-11.48,3.8-11.48,8.65s5.05,8.66,11.48,8.66,11.49-3.8,11.49-8.66-5.05-8.65-11.49-8.65Z"/><ellipse class="cls-27" cx="378.49" cy="507.58" rx="5.87" ry="8.09"/><circle class="cls-34" cx="350.67" cy="514.28" r="6.25"/><path class="cls-6" d="M350.67,509.53a4.75,4.75,0,1,1-4.75,4.75,4.75,4.75,0,0,1,4.75-4.75m0-3a7.75,7.75,0,1,0,7.75,7.75,7.76,7.76,0,0,0-7.75-7.75Z"/><path class="cls-35" d="M397,528.63c-5.06,0-9-2.64-9.3-6.28a6.38,6.38,0,0,1,2.67-5.51,12.42,12.42,0,0,1,6.63-2.51c.44,0,.86-.06,1.29-.06,5.06,0,9,2.64,9.3,6.28a6.38,6.38,0,0,1-2.67,5.51,12.42,12.42,0,0,1-6.63,2.51q-.64.06-1.29.06Z"/><path class="cls-6" d="M398.27,515.77c4.15,0,7.54,2.06,7.8,4.91.28,3.11-3.27,6-7.93,6.4a11.37,11.37,0,0,1-1.16,0c-4.15,0-7.54-2.06-7.8-4.91-.28-3.11,3.27-6,7.93-6.4a11.37,11.37,0,0,1,1.16-.05m0-3c-.47,0-.95,0-1.43.06-6.41.58-11.09,4.83-10.65,9.66.4,4.43,4.94,7.64,10.79,7.64.47,0,.95,0,1.43-.06,6.41-.58,11.09-4.83,10.65-9.66-.4-4.43-4.94-7.64-10.79-7.64Z"/><circle class="cls-34" cx="407.92" cy="514.28" r="6.25"/><path class="cls-6" d="M407.92,509.53a4.75,4.75,0,1,1-4.75,4.75,4.75,4.75,0,0,1,4.75-4.75m0-3a7.75,7.75,0,1,0,7.75,7.75,7.76,7.76,0,0,0-7.75-7.75Z"/><path class="cls-34" d="M517.94,611.79c-6,0-12.26-5.57-15.15-13.54a23.31,23.31,0,0,1-1-13.27c1-4.24,3.45-7.25,6.77-8.45a9.21,9.21,0,0,1,3.18-.55c6,0,12.26,5.56,15.16,13.54,3.47,9.57.89,19.31-5.75,21.72A9.21,9.21,0,0,1,517.94,611.79Z"/><path class="cls-6" d="M511.71,577.48c5.28,0,11,5,13.75,12.55,3.19,8.8,1,17.67-4.85,19.8a7.85,7.85,0,0,1-2.67.46c-5.27,0-11-5-13.74-12.55-3.2-8.81-1-17.67,4.84-19.8a7.89,7.89,0,0,1,2.67-.46m0-3h0a10.73,10.73,0,0,0-3.69.64c-3.81,1.38-6.55,4.76-7.71,9.5a24.73,24.73,0,0,0,1.07,14.14c3.1,8.56,9.91,14.53,16.56,14.53a10.69,10.69,0,0,0,3.69-.64c3.82-1.38,6.56-4.76,7.72-9.5A24.91,24.91,0,0,0,528.28,589c-3.11-8.56-9.92-14.53-16.57-14.53Z"/><path class="cls-34" d="M514.9,602.82c-6,0-12.26-5.56-15.16-13.54-3.47-9.57-.89-19.31,5.75-21.72a9.21,9.21,0,0,1,3.18-.55c6,0,12.26,5.57,15.15,13.54,3.47,9.57.9,19.31-5.74,21.72A9.21,9.21,0,0,1,514.9,602.82Z"/><path class="cls-6" d="M508.67,568.51c5.27,0,11,5,13.74,12.55,3.2,8.81,1,17.67-4.84,19.8a7.89,7.89,0,0,1-2.67.46c-5.28,0-11-5-13.75-12.55-3.19-8.8-1-17.67,4.85-19.8a7.85,7.85,0,0,1,2.67-.46m0-3h0a10.69,10.69,0,0,0-3.69.64c-7.54,2.74-10.46,13.12-6.65,23.64,3.11,8.56,9.92,14.53,16.57,14.53a10.73,10.73,0,0,0,3.69-.64c7.54-2.73,10.46-13.12,6.64-23.64-3.1-8.56-9.91-14.53-16.56-14.53Z"/><path class="cls-35" d="M527.47,609.53a8.16,8.16,0,0,1-4.58-1.65c-4.27-2.9-8.9-9.42-6.45-13,.62-.9,1.94-2,4.74-2a19,19,0,0,1,9.75,3.17c2.76,1.87,5.35,5.13,2,10-1.59,2.33-3.38,3.47-5.49,3.47Z"/><path class="cls-6" d="M521.18,594.37a17.6,17.6,0,0,1,8.9,2.91c3.88,2.63,3.39,5.36,1.63,7.94-1.1,1.62-2.44,2.81-4.24,2.81a6.84,6.84,0,0,1-3.74-1.39c-3.87-2.63-7.8-8.36-6.05-10.95.64-.93,1.92-1.32,3.5-1.32m0-3c-3.46,0-5.16,1.43-6,2.64-3.13,4.61,2.06,11.86,6.85,15.11a9.78,9.78,0,0,0,5.42,1.91c2.61,0,4.87-1.39,6.73-4.12,3.09-4.55,2.2-9-2.43-12.11a20.56,20.56,0,0,0-10.59-3.43Z"/><path class="cls-34" d="M513.63,603.09a13.35,13.35,0,0,1-11.92-18.77,12.56,12.56,0,0,1,11.47-7.48,13.34,13.34,0,0,1,11.92,18.77,12.56,12.56,0,0,1-11.47,7.48Z"/><path class="cls-6" d="M513.18,578.34A11.66,11.66,0,0,1,524,586.11a11.5,11.5,0,0,1-6.66,14.82,10.9,10.9,0,0,1-3.75.66,11.64,11.64,0,0,1-10.85-7.77A11.49,11.49,0,0,1,509.43,579a10.94,10.94,0,0,1,3.75-.66m0-3h0a13.85,13.85,0,0,0-4.77.84A14.5,14.5,0,0,0,500,594.84a14.67,14.67,0,0,0,13.67,9.75,13.85,13.85,0,0,0,4.77-.84,14,14,0,0,0,8.07-7.53,14.84,14.84,0,0,0-13.29-20.88Z"/><ellipse class="cls-27" cx="513.94" cy="589.6" rx="8.09" ry="5.87" transform="translate(-170.23 210.56) rotate(-19.94)"/><path class="cls-34" d="M528.9,595.88a6.26,6.26,0,1,1,5.66-3.6,6.28,6.28,0,0,1-5.66,3.6Z"/><path class="cls-6" d="M528.9,584.88a4.75,4.75,0,0,1,1.62,9.21,4.58,4.58,0,0,1-1.62.29,4.75,4.75,0,0,1-1.62-9.21,4.66,4.66,0,0,1,1.62-.29m0-3h0a7.76,7.76,0,0,0-7.28,10.39,7.77,7.77,0,0,0,7.28,5.11A7.77,7.77,0,0,0,536.19,587a7.78,7.78,0,0,0-7.29-5.11Z"/><path class="cls-35" d="M494.93,576.89c-3.6,0-8.3-3.85-10.58-7.42-1.42-2.2-1.85-4.24-1.3-6.06a7.38,7.38,0,0,1,3.37-3.95A7.92,7.92,0,0,1,490.7,558c2.18,0,4.09,1.26,5.69,3.75a20,20,0,0,1,2.79,7.67c.45,3.3-.25,5.73-2,6.84a4.1,4.1,0,0,1-2.27.63Z"/><path class="cls-6" d="M490.7,559.5c1.5,0,3,.83,4.43,3.06,2.53,3.94,3.89,10.75,1.26,12.44a2.64,2.64,0,0,1-1.46.39c-2.88,0-7.19-3.41-9.32-6.73-2.53-3.94-1-6.25,1.62-7.94a6.6,6.6,0,0,1,3.47-1.22m0-3a9.35,9.35,0,0,0-5.09,1.7,8.81,8.81,0,0,0-4,4.77c-.69,2.26-.2,4.72,1.46,7.31,2.56,4,7.69,8.11,11.85,8.11a5.55,5.55,0,0,0,3.08-.87c4.69-3,2.77-11.71-.36-16.58-1.89-3-4.23-4.44-6.95-4.44Z"/><path class="cls-34" d="M493,587.05a6.25,6.25,0,0,1-2.13-12.13,6.49,6.49,0,0,1,2.13-.37,6.25,6.25,0,0,1,5.87,4.12,6.26,6.26,0,0,1-5.87,8.38Z"/><path class="cls-6" d="M493,576.05a4.75,4.75,0,0,1,1.62,9.21,4.82,4.82,0,0,1-1.62.29,4.75,4.75,0,0,1-1.62-9.22,4.85,4.85,0,0,1,1.62-.28m0-3h0a7.93,7.93,0,0,0-2.64.46,7.75,7.75,0,1,0,2.64-.46Z"/><path class="cls-34" d="M499.54,596a6.26,6.26,0,0,1-5.87-4.12,6.23,6.23,0,1,1,5.87,4.12Z"/><path class="cls-6" d="M499.54,585a4.75,4.75,0,0,1,1.62,9.21,4.86,4.86,0,0,1-1.62.29,4.75,4.75,0,0,1-1.62-9.21,4.58,4.58,0,0,1,1.62-.29m0-3h0a7.75,7.75,0,1,0,7.28,5.11,7.69,7.69,0,0,0-7.28-5.11Z"/><path class="cls-35" d="M506.73,623.08c-5.92,0-7.16-4-7.16-7.31,0-5.16,2.79-12.65,7.16-12.65s7.15,7.49,7.15,12.65C513.88,619.1,512.64,623.08,506.73,623.08Z"/><path class="cls-6" d="M506.73,604.62c3.12,0,5.65,6.46,5.65,11.15s-2.53,5.81-5.65,5.81-5.66-1.13-5.66-5.81,2.53-11.15,5.66-11.15m0-3c-5.58,0-8.66,8.36-8.66,14.15,0,5.6,3.16,8.81,8.66,8.81s8.65-3.21,8.65-8.81c0-5.79-3.08-14.15-8.65-14.15Z"/><path class="cls-34" d="M517.83,579.51a6.26,6.26,0,1,1,2.13-.38,6.26,6.26,0,0,1-2.13.38Z"/><path class="cls-6" d="M517.83,568.51a4.75,4.75,0,0,1,1.62,9.21,4.62,4.62,0,0,1-1.62.29,4.75,4.75,0,0,1-1.62-9.21,4.62,4.62,0,0,1,1.62-.29m0-3a7.76,7.76,0,1,0,7.28,5.11,7.69,7.69,0,0,0-7.28-5.11Z"/><path class="cls-34" d="M503.52,606.17a6.24,6.24,0,0,1-5.66-8.89,6.27,6.27,0,0,1,5.66-3.61,6.25,6.25,0,0,1,2.13,12.13A6.49,6.49,0,0,1,503.52,606.17Z"/><path class="cls-6" d="M503.52,595.17a4.75,4.75,0,0,1,1.62,9.21,4.66,4.66,0,0,1-1.62.29,4.75,4.75,0,0,1-1.62-9.21,4.82,4.82,0,0,1,1.62-.29m0-3h0a7.76,7.76,0,0,0-7.29,10.39,7.78,7.78,0,0,0,7.29,5.11,7.93,7.93,0,0,0,2.64-.46,7.75,7.75,0,0,0-2.64-15Z"/><path class="cls-34" d="M253,611.79a9.21,9.21,0,0,1-3.18-.55c-3.32-1.21-5.73-4.21-6.77-8.45a23.31,23.31,0,0,1,1-13.27c2.89-8,9.12-13.54,15.15-13.54a9.21,9.21,0,0,1,3.18.55c6.64,2.41,9.22,12.15,5.75,21.72-2.89,8-9.13,13.54-15.16,13.54Z"/><path class="cls-6" d="M259.2,577.48a7.85,7.85,0,0,1,2.67.46c5.87,2.13,8,11,4.85,19.8-2.73,7.51-8.47,12.55-13.75,12.55a7.89,7.89,0,0,1-2.67-.46c-5.87-2.13-8-11-4.84-19.8,2.72-7.51,8.47-12.55,13.74-12.55m0-3c-6.65,0-13.46,6-16.56,14.53a24.73,24.73,0,0,0-1.07,14.14c1.16,4.74,3.9,8.12,7.71,9.5a10.73,10.73,0,0,0,3.69.64c6.65,0,13.46-6,16.57-14.53a24.91,24.91,0,0,0,1.07-14.14c-1.16-4.74-3.9-8.12-7.72-9.5a10.69,10.69,0,0,0-3.69-.64Z"/><path class="cls-34" d="M256,602.82a9.21,9.21,0,0,1-3.18-.55c-6.64-2.41-9.22-12.15-5.75-21.72,2.89-8,9.12-13.54,15.15-13.54a9.21,9.21,0,0,1,3.18.55c6.64,2.41,9.22,12.15,5.75,21.72-2.89,8-9.12,13.54-15.15,13.54Z"/><path class="cls-6" d="M262.24,568.51a7.85,7.85,0,0,1,2.67.46c5.87,2.13,8,11,4.85,19.8-2.72,7.51-8.47,12.55-13.74,12.55a7.85,7.85,0,0,1-2.67-.46c-5.87-2.13-8-11-4.85-19.8,2.72-7.51,8.47-12.55,13.74-12.55m0-3c-6.65,0-13.46,6-16.56,14.53-3.82,10.52-.9,20.91,6.64,23.64a10.75,10.75,0,0,0,3.7.64c6.65,0,13.46-6,16.56-14.53,3.82-10.52.9-20.9-6.64-23.64a10.75,10.75,0,0,0-3.7-.64Z"/><path class="cls-35" d="M243.45,609.53c-2.12,0-3.91-1.14-5.49-3.47-3.32-4.89-.73-8.15,2-10a18.94,18.94,0,0,1,9.75-3.17c2.8,0,4.12,1.08,4.73,2,2.46,3.61-2.18,10.13-6.45,13A8.16,8.16,0,0,1,243.45,609.53Z"/><path class="cls-6" d="M249.74,594.37c1.57,0,2.86.39,3.49,1.32,1.76,2.59-2.17,8.32-6,10.95a6.84,6.84,0,0,1-3.73,1.39c-1.81,0-3.15-1.19-4.25-2.81-1.75-2.58-2.25-5.31,1.63-7.94a17.61,17.61,0,0,1,8.91-2.91m0-3h0a20.59,20.59,0,0,0-10.6,3.43c-4.63,3.14-5.51,7.56-2.42,12.11,1.85,2.73,4.12,4.12,6.73,4.12a9.81,9.81,0,0,0,5.42-1.91c4.78-3.25,10-10.5,6.84-15.11-.81-1.21-2.52-2.64-6-2.64Z"/><path class="cls-34" d="M257.28,603.09a12.41,12.41,0,0,1-4.26-.75,12.59,12.59,0,0,1-7.21-6.73,13.35,13.35,0,0,1,11.92-18.77,12.47,12.47,0,0,1,4.27.75,13,13,0,0,1,7.55,16.74,13.17,13.17,0,0,1-12.27,8.76Z"/><path class="cls-6" d="M257.73,578.34a10.9,10.9,0,0,1,3.75.66,11.49,11.49,0,0,1,6.66,14.82,11.65,11.65,0,0,1-10.86,7.77,10.94,10.94,0,0,1-3.75-.66,11.49,11.49,0,0,1-6.65-14.82,11.64,11.64,0,0,1,10.85-7.77m0-3a14.85,14.85,0,0,0-13.29,20.88,14.06,14.06,0,0,0,8.07,7.53,13.89,13.89,0,0,0,4.77.84A14.68,14.68,0,0,0,271,594.84a14.51,14.51,0,0,0-8.45-18.66,14,14,0,0,0-4.78-.84Z"/><ellipse class="cls-27" cx="256.97" cy="589.6" rx="5.87" ry="8.09" transform="translate(-384.91 630.15) rotate(-70.06)"/><path class="cls-34" d="M242,595.88a6.25,6.25,0,1,1,5.87-4.12,6.21,6.21,0,0,1-5.87,4.12Z"/><path class="cls-6" d="M242,584.88a4.62,4.62,0,0,1,1.62.29,4.75,4.75,0,0,1-1.62,9.21,4.62,4.62,0,0,1-1.62-.29,4.75,4.75,0,0,1,1.62-9.21m0-3a7.76,7.76,0,0,0-7,11,7.79,7.79,0,0,0,7,4.47,7.75,7.75,0,0,0,0-15.5Z"/><path class="cls-35" d="M276,576.89a4.12,4.12,0,0,1-2.27-.63c-1.72-1.11-2.43-3.54-2-6.84a20,20,0,0,1,2.8-7.67c1.59-2.49,3.51-3.75,5.69-3.75a7.87,7.87,0,0,1,4.27,1.46c5,3.19,3.88,7.21,2.08,10C284.28,573,279.58,576.89,276,576.89Z"/><path class="cls-6" d="M280.22,559.5a6.57,6.57,0,0,1,3.46,1.22c2.63,1.69,4.15,4,1.62,7.94-2.12,3.32-6.44,6.73-9.32,6.73a2.66,2.66,0,0,1-1.46-.39c-2.62-1.69-1.26-8.5,1.27-12.44,1.43-2.23,2.92-3.06,4.43-3.06m0-3h0c-2.73,0-5.07,1.49-7,4.44-3.12,4.87-5.05,13.57-.36,16.58a5.57,5.57,0,0,0,3.08.87c4.16,0,9.29-4.12,11.85-8.11,1.67-2.59,2.16-5,1.47-7.31a8.83,8.83,0,0,0-4-4.77,9.32,9.32,0,0,0-5.08-1.7Z"/><path class="cls-34" d="M277.87,587.05a6.25,6.25,0,0,1,0-12.5,6.45,6.45,0,0,1,2.13.37,6.25,6.25,0,0,1-2.13,12.13Z"/><path class="cls-6" d="M277.87,576.05a4.8,4.8,0,0,1,1.62.28,4.75,4.75,0,0,1-1.62,9.22,4.86,4.86,0,0,1-1.62-.29,4.75,4.75,0,0,1,1.62-9.21m0-3a7.75,7.75,0,1,0,7.28,10.39,7.74,7.74,0,0,0-4.64-9.93,7.93,7.93,0,0,0-2.64-.46Z"/><path class="cls-34" d="M271.37,596a6.25,6.25,0,0,1,0-12.5,6.26,6.26,0,0,1,5.88,8.38,6.29,6.29,0,0,1-5.88,4.12Z"/><path class="cls-6" d="M271.38,585a4.57,4.57,0,0,1,1.61.29,4.75,4.75,0,0,1-1.62,9.21,4.8,4.8,0,0,1-1.61-.29,4.75,4.75,0,0,1,1.62-9.21m0-3a7.74,7.74,0,0,0-7,11,7.76,7.76,0,0,0,7,4.47,7.79,7.79,0,0,0,7.29-5.11A7.76,7.76,0,0,0,271.38,582Z"/><path class="cls-35" d="M264.19,623.08c-5.91,0-7.16-4-7.16-7.31,0-5.16,2.79-12.65,7.16-12.65s7.15,7.49,7.15,12.65C271.34,619.1,270.1,623.08,264.19,623.08Z"/><path class="cls-6" d="M264.19,604.62c3.12,0,5.65,6.46,5.65,11.15s-2.53,5.81-5.65,5.81-5.66-1.13-5.66-5.81,2.54-11.15,5.66-11.15m0-3c-5.57,0-8.66,8.36-8.66,14.15,0,5.6,3.16,8.81,8.66,8.81s8.65-3.21,8.65-8.81c0-5.79-3.08-14.15-8.65-14.15Z"/><path class="cls-34" d="M253.08,579.51a6.25,6.25,0,0,1,0-12.5,6.28,6.28,0,0,1,5.66,3.6,6.24,6.24,0,0,1-5.66,8.9Z"/><path class="cls-6" d="M253.08,568.51a4.58,4.58,0,0,1,1.62.29,4.75,4.75,0,0,1-1.62,9.21,4.66,4.66,0,0,1-1.62-.29,4.75,4.75,0,0,1,1.62-9.21m0-3h0a7.75,7.75,0,0,0-2.64,15,7.69,7.69,0,0,0,2.64.47,7.75,7.75,0,0,0,2.64-15,7.69,7.69,0,0,0-2.64-.47Z"/><path class="cls-34" d="M267.4,606.17a6.4,6.4,0,0,1-2.13-.37,6.26,6.26,0,0,1-3.75-8,6.24,6.24,0,0,1,8-3.74,6.25,6.25,0,0,1-2.13,12.12Z"/><path class="cls-6" d="M267.4,595.17a4.91,4.91,0,0,1,1.62.29,4.75,4.75,0,0,1-1.62,9.21,4.58,4.58,0,0,1-1.62-.29,4.75,4.75,0,0,1,1.62-9.21m0-3a7.79,7.79,0,0,0-7.29,5.11,7.76,7.76,0,0,0,4.65,9.93,7.93,7.93,0,0,0,2.64.46,7.75,7.75,0,0,0,2.64-15,7.69,7.69,0,0,0-2.64-.47Z"/><circle class="cls-34" cx="385.46" cy="633.68" r="3"/><path class="cls-35" d="M253,710.1A6.08,6.08,0,1,1,259,704,6.08,6.08,0,0,1,253,710.1Z"/><path class="cls-6" d="M253,699.45a4.58,4.58,0,1,1-4.58,4.58,4.58,4.58,0,0,1,4.58-4.58m0-3a7.58,7.58,0,1,0,7.57,7.58,7.59,7.59,0,0,0-7.57-7.58Z"/><circle class="cls-36" cx="252.95" cy="712.04" r="4.58"/><path class="cls-35" d="M253,725.73a6.08,6.08,0,1,1,6.07-6.08A6.09,6.09,0,0,1,253,725.73Z"/><path class="cls-6" d="M253,715.08a4.58,4.58,0,1,1-4.58,4.57,4.57,4.57,0,0,1,4.58-4.57m0-3a7.58,7.58,0,1,0,7.57,7.57,7.58,7.58,0,0,0-7.57-7.57Z"/><circle class="cls-36" cx="252.95" cy="727.66" r="4.58"/><path class="cls-35" d="M518.14,710.1a6.08,6.08,0,1,1,6.08-6.07A6.07,6.07,0,0,1,518.14,710.1Z"/><path class="cls-6" d="M518.14,699.45a4.58,4.58,0,1,1-4.57,4.58,4.58,4.58,0,0,1,4.57-4.58m0-3a7.58,7.58,0,1,0,7.58,7.58,7.58,7.58,0,0,0-7.58-7.58Z"/><circle class="cls-36" cx="518.14" cy="712.04" r="4.58"/><path class="cls-35" d="M518.14,725.73a6.08,6.08,0,1,1,6.08-6.08A6.08,6.08,0,0,1,518.14,725.73Z"/><path class="cls-6" d="M518.14,715.08a4.58,4.58,0,1,1-4.57,4.57,4.57,4.57,0,0,1,4.57-4.57m0-3a7.58,7.58,0,1,0,7.58,7.57,7.57,7.57,0,0,0-7.58-7.57Z"/><circle class="cls-36" cx="518.14" cy="727.66" r="4.58"/><path class="cls-37" d="M365,801.06h11.88a9.05,9.05,0,0,1,9.05,9.05v4.8a0,0,0,0,1,0,0H356a0,0,0,0,1,0,0v-4.8A9.05,9.05,0,0,1,365,801.06Z" transform="translate(420.03 -79.74) rotate(27.82)"/><path class="cls-37" d="M385.17,801h29.75a0,0,0,0,1,0,0v4.8a9.05,9.05,0,0,1-9.05,9.05H394.22a9.05,9.05,0,0,1-9.05-9.05V801a0,0,0,0,1,0,0Z" transform="translate(1130.94 1335.73) rotate(152.18)"/><path class="cls-26" d="M390.12,821s5.95,23.37,27.59,21.49,30.11,12.23,30.11,12.23"/><polygon class="cls-17" points="328.13 1076.37 332.92 1036.49 436.59 1036.49 441.38 1076.37 328.13 1076.37"/><path class="cls-6" d="M434.38,1039l4.18,34.88H331l4.19-34.88h99.24m4.43-5H330.71l-.53,4.4L326,1073.27l-.67,5.6H444.2l-.67-5.6-4.19-34.88-.53-4.4Z"/><path class="cls-38" d="M550.53,857.25c-6.8,2.13,4.7,3.41.1,13.46-6.71,8-16.43,3.94-16.43,3.92v0c-27.86,11.38-87.24,19.26-156,19.26-66.7,0-123.9-10.09-152.72-20.93.65-4.57,3-6.11,10.82-8.19-4.71.9-19.44,1.83-19.52-16.93-.09-17.21,20.25-15.68,21.12-15.43-.44-.81-10.73-19,.07-28.32,16.05-13.82,28.25,1.43,28.25,1.43s-12.85-23.13,6.49-32.71c14.88-7.37,26.09-.86,29.16,10.46-1.57-5.8-5.14-24.06,12.86-31.38,17.56-7.14,27.77,5.42,29.23,9.86-1.71-7.81-1.27-25.4,16.48-28.28,19.84-3.23,22.43,17.77,22.43,17.77s0-25.59,23-23.72c20.52,1.66,16.39,24.92,16.39,24.92s4.22-24.63,24.55-18.51c18.88,5.69,12.79,25.1,9.63,29,4.76-5.22,18.54-14.51,27.22-7.37C495,764.82,485.28,783,485.28,783s14.68-15,26.39-5.14c12.71,10.68,4.45,23.37,4.05,24.18.87-.68,17.17-7,24.64,1.92,7.61,9.19-3.07,25.16-3.07,25.16s23.43-2.86,25.43,14.47C563.56,850.94,557.66,855,550.53,857.25Z"/><path class="cls-38" d="M324,825.6s1.28-12.05,10.57-9.68,4.59,13.77,4.59,13.77"/><path class="cls-38" d="M365.56,788.76s-4.41-8.89,4-11.62,9.82,7.33,9.82,7.33"/><path class="cls-39" d="M388.23,810.69s-2-13.6,8.5-13.92,8.67,13.63,8.67,13.63"/><path class="cls-38" d="M428.73,831s8.94-2.08,11.3,4.91-4.57,11.18-4.57,11.18"/><path class="cls-17" d="M375.64,1055.63c-89,0-161.34-72.37-161.34-161.34V871H555.64v23.28c0,89-72.37,161.34-161.34,161.34Z"/><path class="cls-6" d="M553.14,873.51v20.78A158.83,158.83,0,0,1,394.3,1053.13H375.64A158.84,158.84,0,0,1,216.8,894.29V873.51H553.14m5-5H211.8v25.78a163.85,163.85,0,0,0,163.84,163.84H394.3A163.85,163.85,0,0,0,558.14,894.29V868.51Z"/><line class="cls-40" x1="278.45" y1="902.44" x2="485.72" y2="902.44"/><path class="cls-26" d="M252.22,893.77c0-10.3,9.55-18.65,21.33-18.65S294,883.47,294,893.77s-8.65,18.65-20.43,18.65S252.22,904.07,252.22,893.77Z"/><path class="cls-26" d="M532.67,893.77c0-10.3-9.55-18.65-21.33-18.65s-20.44,8.35-20.44,18.65,8.66,18.65,20.44,18.65S532.67,904.07,532.67,893.77Z"/><path class="cls-28" d="M261.83,941c-31.38-.4-56.9-24.12-56.9-52.89s25.52-52.49,56.9-52.89l2.53,0V941Z"/><path class="cls-6" d="M261.86,837.68V938.47c-30.13-.39-54.43-22.8-54.43-50.4s24.3-50,54.43-50.39m5-5.06-5.06.06A62.6,62.6,0,0,0,220,849c-11.3,10.45-17.52,24.33-17.52,39.07s6.22,28.63,17.52,39.07a62.51,62.51,0,0,0,41.85,16.32l5.06.07V832.62Z"/><path class="cls-19" d="M259.36,940.93V835.22l3.29-.05a63.73,63.73,0,0,1,9.86.77l2.11.34V939.87l-2.11.33a63.73,63.73,0,0,1-9.86.77Z"/><path class="cls-6" d="M262.65,837.67a61.44,61.44,0,0,1,9.47.74v99.32a60.22,60.22,0,0,1-9.47.74h-.79V837.68h.79m0-5h-.85l-4.94.07V943.4l4.94.06h.85a66.2,66.2,0,0,0,10.25-.8l4.22-.66V834.14l-4.22-.67a66.2,66.2,0,0,0-10.25-.8Z"/><path class="cls-28" d="M521.86,835.15l2.54,0c31.37.4,56.9,24.13,56.9,52.89S555.77,940.56,524.4,941l-2.54,0Z"/><path class="cls-6" d="M524.36,837.68c30.14.39,54.44,22.8,54.44,50.39s-24.3,50-54.44,50.4V837.68m-5-5.06V943.53l5.07-.07a62.53,62.53,0,0,0,41.85-16.32c11.3-10.44,17.52-24.32,17.52-39.07s-6.22-28.62-17.52-39.07a62.62,62.62,0,0,0-41.85-16.32l-5.07-.06Z"/><path class="cls-19" d="M523.57,941a63.6,63.6,0,0,1-9.85-.77l-2.11-.33V836.28l2.11-.34a63.6,63.6,0,0,1,9.85-.77l3.29.05V940.93Z"/><path class="cls-6" d="M523.57,837.67h.79V938.47h-.79a60.09,60.09,0,0,1-9.46-.74V838.41a61.31,61.31,0,0,1,9.46-.74m0-5a66.17,66.17,0,0,0-10.24.8l-4.22.67V942l4.22.66a66.17,66.17,0,0,0,10.24.8h.86l4.93-.06V832.75l-4.93-.07h-.86Z"/></g><path class="cls-19" d="M222.51,243.64c.24.12.48.22.74.37a8.79,8.79,0,0,1,.86.51,10.56,10.56,0,0,1,1.56,1.27,8.88,8.88,0,0,1,2.57,7.29,10,10,0,0,1-.41,2,10.44,10.44,0,0,1-.61,1.55,16.29,16.29,0,0,1-1.45,2.46c-.53.72-1,1.33-1.58,2a25.35,25.35,0,0,1-3.6,3.35,24.44,24.44,0,0,1-8.89,4.35,20,20,0,0,1-10.32-.07,15.53,15.53,0,0,1-5-2.48,11.93,11.93,0,0,1-3.91-4.88,11.13,11.13,0,0,1-.61-6.4,19,19,0,0,1,1.73-4.89c.7-1.4,1.36-2.54,2.05-3.78s1.41-2.42,2.14-3.61c1.46-2.39,3-4.72,4.63-7a4.16,4.16,0,0,1,5.91-.89h0a4.24,4.24,0,0,1,1.09,5.75q-2.22,3.22-4.21,6.58c-.67,1.12-1.32,2.25-1.94,3.39s-1.28,2.35-1.77,3.36a10.72,10.72,0,0,0-.94,2.63,2.21,2.21,0,0,0,.09,1.36,3.16,3.16,0,0,0,1,1.19,6.72,6.72,0,0,0,2.14,1,11.1,11.1,0,0,0,5.6-.08,15.39,15.39,0,0,0,5.49-2.8,17.51,17.51,0,0,0,2.29-2.18c.33-.39.68-.84.95-1.21a7.39,7.39,0,0,0,.6-1,3,3,0,0,0,.12-.33h0s0,0,0,0a1,1,0,0,0-.18-.09,6.26,6.26,0,0,1-3.08-5.42h0a4,4,0,0,1,2-3.17A5.39,5.39,0,0,1,222.51,243.64Z"/><path class="cls-19" d="M185.46,315.1a1,1,0,0,0-.25.11c-.05,0,0,0-.07,0l-.18.15a4.11,4.11,0,0,0-.71,1,11.23,11.23,0,0,0-.94,3.68c-.36,3,.09,5.91,1.17,7.25a3.54,3.54,0,0,0,2,1.37,6.15,6.15,0,0,0,3.13,0,6.61,6.61,0,0,0,1.56-.6,9.41,9.41,0,0,0,1.56-1,14.72,14.72,0,0,0,2.81-3.12,26,26,0,0,0,2.25-4.11,33.34,33.34,0,0,0,1.63-4.56,43.14,43.14,0,0,0,1.47-9.84c.26-6.75-.84-13.7-2.32-20.71-.63-2.95.66-5.79,2.94-6.33h0c2.27-.54,4.7,1.43,5.39,4.5,1.6,7.25,3,14.87,2.75,22.8s-2,16.05-6.63,23.26a23.74,23.74,0,0,1-4.5,5.08,18.67,18.67,0,0,1-3,2.05A15.69,15.69,0,0,1,192,337.5a15.25,15.25,0,0,1-7.8.09,12.68,12.68,0,0,1-7-4.63,15.79,15.79,0,0,1-3-7.08,25.37,25.37,0,0,1-.19-6.71,20.4,20.4,0,0,1,1.79-6.89,13.65,13.65,0,0,1,2.41-3.47c.27-.27.52-.52.83-.78a10.61,10.61,0,0,1,1-.76,10.4,10.4,0,0,1,2.19-1.09,7.28,7.28,0,0,1,8.06,1.87,3.55,3.55,0,0,1,.87,2.74,2.24,2.24,0,0,1-1.17,1.58h0a12.28,12.28,0,0,1-1.77.68,3.84,3.84,0,0,0-1.36.79c-.32.31-.53.6-.75.82A2,2,0,0,1,185.46,315.1Z"/><path class="cls-19" d="M216.77,326.25a2.7,2.7,0,0,0,.63-.28c.11-.06.19-.13.28-.19a.52.52,0,0,1,.11-.1l.16-.17a7,7,0,0,0,1.18-2.08,41.85,41.85,0,0,0,1.64-7,87.79,87.79,0,0,0-.12-30.56l-.36-1.88a14.06,14.06,0,0,0-.37-1.49,3.36,3.36,0,0,0-.37-.83,1.11,1.11,0,0,0-.28-.32,2.79,2.79,0,0,0-1.56-.41,6.61,6.61,0,0,0-2.45.54,4.55,4.55,0,0,1-5.29-2.09h0a4,4,0,0,1,2.06-5.8,15.13,15.13,0,0,1,5.58-1.23,11.31,11.31,0,0,1,6.4,1.76,9.77,9.77,0,0,1,2.69,2.63,12.19,12.19,0,0,1,1.44,2.9,21.25,21.25,0,0,1,.68,2.46l.43,2.08a96.67,96.67,0,0,1,.64,33.7c-.21,1.4-.48,2.78-.75,4.18a30.27,30.27,0,0,1-1.24,4.57,16.42,16.42,0,0,1-2.77,4.92l-.52.58-.62.6a11.73,11.73,0,0,1-1.32,1,12.2,12.2,0,0,1-3,1.46,6.52,6.52,0,0,1-3.41.18,5.21,5.21,0,0,1-2.66-1.44,3.13,3.13,0,0,1-.92-2.1,2.83,2.83,0,0,1,.67-1.79h0a11.24,11.24,0,0,1,1.33-1.34,6.31,6.31,0,0,0,1-1.16C216.24,326.87,216.31,326.37,216.77,326.25Z"/><path class="cls-19" d="M244.69,255.32a6.71,6.71,0,0,0-1.2,1.29,5.15,5.15,0,0,0-.44.74,8,8,0,0,0-.4.91,15.5,15.5,0,0,0-.8,4.66c-.08,1.75,0,3.74.11,5.74a20.66,20.66,0,0,0,.68,4.95,4.46,4.46,0,0,0,1.69,2.56,6,6,0,0,0,3.38.84,15.32,15.32,0,0,0,4.69-.81,27.43,27.43,0,0,0,4.85-2.12,15.25,15.25,0,0,0,6.7-6.7c1.28-2.73,1.32-5.86,0-7.84a6.64,6.64,0,0,0-2.74-2.48,4.27,4.27,0,0,0-3.08-.24,5,5,0,0,0-2.59,2,3.9,3.9,0,0,0-.57,1.43,4.53,4.53,0,0,0,0,1.64,10.68,10.68,0,0,1,0,3,6.6,6.6,0,0,1-.94,3.23h0c-.68.93-2,1.34-3.67.61a7.21,7.21,0,0,1-3.8-5.2,13.23,13.23,0,0,1-.08-4.7,12.55,12.55,0,0,1,1.69-4.5,13.49,13.49,0,0,1,7.18-5.71,12.61,12.61,0,0,1,4.77-.63,13.28,13.28,0,0,1,4.55,1.11,15.34,15.34,0,0,1,6.61,5.71,15.15,15.15,0,0,1,1.83,4.05,16.18,16.18,0,0,1,.6,4.23,18.92,18.92,0,0,1-1.7,7.92,21.42,21.42,0,0,1-4.44,6.42,27.88,27.88,0,0,1-5.89,4.46,34.8,34.8,0,0,1-3.16,1.61c-1.07.48-2.12.9-3.31,1.3a24.28,24.28,0,0,1-7.48,1.33,15.07,15.07,0,0,1-8.49-2.3,12.87,12.87,0,0,1-3.46-3.36,15.16,15.16,0,0,1-2-4,29.29,29.29,0,0,1-1.19-7.25c-.11-2.11-.24-4.24-.17-6.61a24.69,24.69,0,0,1,1.28-7.47,15.61,15.61,0,0,1,.8-1.94,15.8,15.8,0,0,1,1.12-1.92,16,16,0,0,1,3-3.25,9.42,9.42,0,0,1,4-2,7.37,7.37,0,0,1,3.86.17,4.12,4.12,0,0,1,2.22,1.67,2.42,2.42,0,0,1,.23,2h0a5.59,5.59,0,0,1-1,1.68l-1.12,1.41A11.39,11.39,0,0,1,244.69,255.32Z"/><path class="cls-19" d="M257.46,297.48a15.2,15.2,0,0,1,3.17-3,14.77,14.77,0,0,1,3.93-2,17.33,17.33,0,0,1,8.26-.64,19.31,19.31,0,0,1,7.45,2.87,18,18,0,0,1,5.67,5.84,14.8,14.8,0,0,1,2.05,8.38,18.15,18.15,0,0,1-2.29,7.71,23.31,23.31,0,0,1-4.62,5.88,26.74,26.74,0,0,1-5.9,4.2,26.44,26.44,0,0,1-14.09,3.08,24.26,24.26,0,0,1-13.53-5.38,24,24,0,0,1-4.95-5.48A21.67,21.67,0,0,1,239.7,312a22.17,22.17,0,0,1,1.77-14.56,7.09,7.09,0,0,1,4-3.67,3.17,3.17,0,0,1,3.5.73h0a4.81,4.81,0,0,1,1,3.25,8,8,0,0,1-.81,3.44A13.16,13.16,0,0,0,253,317.53a15.35,15.35,0,0,0,8.61,3.36,17.41,17.41,0,0,0,9.27-2.14,16.63,16.63,0,0,0,6.75-6.48,9,9,0,0,0,1.15-3.81,5.46,5.46,0,0,0-.82-3.21,8.65,8.65,0,0,0-2.76-2.76,9.9,9.9,0,0,0-3.84-1.44,7.83,7.83,0,0,0-3.77.29,5.52,5.52,0,0,0-1.47.76,5.88,5.88,0,0,0-1.21,1.18,14.39,14.39,0,0,1-2.48,2.45,8.18,8.18,0,0,1-3.29,1.92c-1.26.25-2.73-.56-3.41-2.63a7.59,7.59,0,0,1-.14-3.62A9.35,9.35,0,0,1,257.46,297.48Z"/><path class="cls-19" d="M202.66,310.47A16.22,16.22,0,0,0,216,316.38c4.48-.22,4.51-7.22,0-7a9.71,9.71,0,0,1-8.37-3.86c-1.19-1.48-3.72-1.24-5,0a3.58,3.58,0,0,0,0,5Z"/><path class="cls-19" d="M204.33,299.19a16,16,0,0,0,12.37-1.95c3.87-2.3.35-8.36-3.53-6a8.9,8.9,0,0,1-7,1.24c-4.35-1.2-6.21,5.55-1.86,6.75Z"/><path class="cls-19" d="M302.47,268.82c-9.76.51-18.91,7.29-18.88,17.75s9.21,17,19.18,16.17c9.5-.79,18.23-8,18.52-18,.3-10.15-8.46-17.31-18.25-15.71-5.33.86-3.07,9,2.23,8.1s8.55,4.71,7.32,9.35c-1.3,4.94-6.38,7.82-11.27,7.93s-9.31-2.6-9.33-7.86c0-5.7,5.28-9.08,10.48-9.35,5.38-.28,5.41-8.68,0-8.4Z"/><path class="cls-19" d="M342.93,253.79c.38,5.1.72,11-2.74,15.18-2.82,3.42-8.77,4.15-9.52-1.25s-8.82-3.06-8.1,2.23c1.21,8.72,11.51,12.41,18.81,8.69C350.59,274,352,263,351.33,253.79c-.41-5.36-8.81-5.4-8.4,0Z"/><path class="cls-19" d="M345.58,269.61c12.79,6.31,32.24,11.19,41.3-3.9,3.45-5.75,3.76-13.43-.57-18.82s-11.65-6.11-16.72-1.44c-4,3.67,2,9.6,5.94,5.94,4.34-4,6,5.16,5.16,7.83a11.84,11.84,0,0,1-7.9,7.37c-7.82,2.59-16-.8-23-4.23-4.83-2.39-9.09,4.86-4.24,7.25Z"/><path class="cls-19" d="M333.19,301.48c6-1.23,21.59-3.75,21.64,6.55,0,8.09-12.24,11.53-17.72,15.09-11.66,7.59-20.44,20.3-18.86,34.71,3.47,31.64,51.31,32,67.22,10.44,9-12.18,5.71-33-11.43-35.42-5.29-.76-7.57,7.34-2.23,8.1A12.21,12.21,0,0,1,382.33,354c-.51,7.5-6.19,13.36-12.62,16.56-10.85,5.4-29,6.92-38.17-2.57-10.47-10.82-3.47-27.18,6.61-35.3,8.88-7.15,25.12-10.6,25.13-24.71,0-6.18-4.24-11.43-9.62-14.05-7.18-3.5-15.21-2.09-22.71-.56-5.29,1.07-3.05,9.17,2.24,8.1Z"/><path class="cls-19" d="M398.28,264c-4.45,9.78-8.22,24.32,4.45,29.83,10.77,4.69,22.74-3.55,26.82-13.52,3.89-9.48-1.12-23.11-13-22.42-11.56.68-14.65,14.91-5.83,21.32,3.65,2.66,7.15-3.42,3.53-6-3.32-2.42-1.86-7.23,1.89-8.16,3.26-.81,6.32,1.91,7.4,4.78,2.09,5.49-1.7,11.55-5.82,14.95-4.28,3.52-11.84,5.5-15.54,0-3.45-5.16-.08-12.27,2.14-17.17,1.86-4.07-4.17-7.63-6-3.53Z"/><path class="cls-19" d="M379.75,300.37a73.34,73.34,0,0,0,57.93-2c4.08-1.9.53-7.94-3.54-6.05a66.42,66.42,0,0,1-52.53,1.32c-4.19-1.65-6,5.12-1.86,6.75Z"/><path class="cls-19" d="M406.68,305.12l-2.57,22.13c-.52,4.46,6.48,4.43,7,0l2.57-22.13c.52-4.46-6.48-4.43-7,0Z"/><path class="cls-19" d="M411.72,320A17,17,0,0,0,422,318.78c1.73-.75,2.13-3.29,1.26-4.78a3.59,3.59,0,0,0-4.79-1.26,8.67,8.67,0,0,1-4.88.53,3.58,3.58,0,0,0-4.3,2.44,3.53,3.53,0,0,0,2.44,4.31Z"/><path class="cls-19" d="M389.59,310.21a8,8,0,0,1-4.68,8.73,7.14,7.14,0,0,1-4.66.47c-.77-.23-3-1.66-1.32-1.94,4.44-.74,2.56-7.48-1.86-6.75-4.05.68-6.5,5.12-5.56,9,1,4.16,5.19,6.45,9.18,6.8,10.29.9,17.26-8.61,15.65-18.18-.74-4.44-7.49-2.55-6.75,1.86Z"/><path class="cls-19" d="M387.41,323.89c13.42,7.31,23,20.17,37.16,26.34,11.5,5,26.18,4.58,34.2-6.23,7-9.41,4.34-22.66-6.57-27.66-10.5-4.81-22.6,2.35-24.53,13.47-.77,4.41,6,6.3,6.75,1.86,1.59-9.18,12.67-13.53,19-5.79,7.22,8.8-2.63,19.18-11.6,20.35-20.44,2.69-34.78-19.6-50.89-28.39-4-2.15-7.5,3.89-3.54,6.05Z"/><path class="cls-19" d="M468,228.41l3,4.53a3.5,3.5,0,1,0,6-3.54l-3-4.52a3.5,3.5,0,1,0-6,3.53Z"/><path class="cls-19" d="M456.62,240.79c5.15,1.94,15.93-.37,18.43,5.41,2.25,5.19-1.43,14.18-4,18.7-3,5.29-7.77,9.64-13.89,10.77a13.71,13.71,0,0,1-9.72-1.52,7.08,7.08,0,0,1-3.43-4.27c-.44-2.13,1-5.22,3.65-3.83,4,2.11,7.52-3.93,3.54-6-9.79-5.2-17.7,6.51-12.51,15.11,5.75,9.52,19.34,9.36,27.94,4.33,9.71-5.69,15.21-17.95,15.86-28.87.29-4.9-1.15-9.87-5.47-12.62-5.66-3.6-12.54-1.65-18.56-3.92-4.22-1.58-6,5.18-1.86,6.75Z"/><path class="cls-19" d="M461.84,278,457,311.23c-.64,4.4,6.11,6.3,6.75,1.86l4.8-33.24c.63-4.4-6.11-6.31-6.75-1.86Z"/><path class="cls-19" d="M470.79,290.45a28.48,28.48,0,0,0,13.28,3.82c4.5.17,4.49-6.83,0-7a20.7,20.7,0,0,1-9.75-2.87c-3.91-2.26-7.44,3.79-3.53,6.05Z"/><path class="cls-19" d="M498.68,245.84l45.8,4.76c4.47.46,4.44-6.54,0-7l-45.8-4.76c-4.47-.46-4.44,6.54,0,7Z"/><path class="cls-19" d="M511.22,256.61c-8.2,1-11.64,9.94-6.71,16.55,5.59,7.5,19.2,8.65,27.52,6,7.35-2.36,13.19-11.11,8.16-18.31-5.63-8.07-18.88-6.5-27-4.13-4.31,1.26-2.48,8,1.86,6.75,4.63-1.36,9.85-2.26,14.64-1.13,5,1.17,7.26,5.64,2.5,9-3.6,2.56-9,2-13.16,1.56-2.44-.28-5.33-.71-7.33-2.25-1.61-1.24-4.83-6.49-.53-7s4.47-7.56,0-7Z"/><path class="cls-19" d="M490.67,294.81c-7.19,8.78-8.6,25.22-3.95,35.45,5.69,12.5,20.89,13.84,33,12.73,5.84-.53,11.63-2.19,16-6.31,5-4.75,6.59-11.65,7.56-18.22.91-6.13,2-12.9-.92-18.68-2.74-5.52-8.39-7.84-14.07-9.21-11.54-2.79-28.31-5.07-37.6,4.24-3.19,3.2,1.76,8.15,4.95,4.95,7.24-7.26,22-4.57,30.79-2.44,6.92,1.67,11,4.69,10.79,12.34-.13,6.11-.93,13.94-4.19,19.25s-9.48,6.95-15.45,7.22c-5.78.27-12.7.34-18-2.13-6.16-2.86-8.3-9.71-8.21-16.06.09-5.94.38-13.38,4.31-18.18C498.45,296.31,493.52,291.33,490.67,294.81Z"/><path class="cls-19" d="M502.56,308a133.36,133.36,0,0,0,20.25,18.4c3.62,2.69,7.12-3.39,3.53-6a126.07,126.07,0,0,1-18.83-17.31c-3-3.37-7.94,1.59-4.95,4.95Z"/><path class="cls-19" d="M520.81,304.31,502,320.78c-3.4,3,1.57,7.9,4.95,4.94l18.86-16.46c3.4-3-1.57-7.9-5-4.95Z"/><path class="cls-19" d="M573.89,225.59c4.32-4.72,5,5.23,1,2.29-3.15-2.3,2.44-4.87,4.8-2.43,5.16,5.34-2.33,13.3-5.82,17-2.66,2.79,1.57,7,4.25,4.24,6-6.32,13.4-16.64,6.17-25-4.93-5.69-16.94-3.65-16.45,5.12.47,8.54,12.63,10.5,15.52,2.36,3-8.47-7.93-14.11-13.71-7.78-2.6,2.85,1.63,7.1,4.24,4.24Z"/><path class="cls-19" d="M608,219.93l2.73,0-2.59-4.52c-1.21,2.37-4.33.78-2.77-1.18l-2.92.77c7,1.06,10,8.81,4.7,13.91-2.8,2.68,1.45,6.92,4.24,4.25,8.3-8,4.28-22.2-7.34-23.94a3,3,0,0,0-2.92.77c-2.8,3.52-2.91,8.72,1.05,11.53,3.79,2.69,9.12.88,11.14-3.08a3,3,0,0,0-2.59-4.51l-2.73,0c-3.86-.06-3.86,5.94,0,6Z"/><path class="cls-19" d="M131.24,245.14c.21.05.07.12-.42.19q-.91.57-.18-.3a1.12,1.12,0,0,1-.95-.81c-1-1.46-.41-4.56.08-6.14.95-3,4.89-4.79,7.7-2.81,3.16,2.22,6.16-3,3-5.18-5.22-3.67-13.51-.92-15.92,4.76s-1.88,16.94,6.77,16.13c7.15-.67,6-11.56-.81-11.5-6.53.06-6.75,9.92-.89,11.44,3.73,1,5.33-4.81,1.59-5.78Z"/><path class="cls-19" d="M165.89,234.33c-.31-.11-3.44-1.14-3.6-.86l1,.34c1.07.94.47,1.18-1.8.7-2.9-1.17-2.85-6.15-1.89-8.46,2-4.82,7.81-6.75,12.6-6.13,3.82.5,3.78-5.5,0-6-7.42-1-16,3.29-18.45,10.62-2.39,7,2.06,18.62,11.16,16,7.24-2.08,6.21-14.22-1.93-13-3.48.54-6.5,4-6.05,7.6.5,4.05,4.33,3.87,7.35,4.94,3.65,1.29,5.22-4.5,1.6-5.78Z"/></svg>